<?xml version="1.0" encoding="UTF-8"?>
<!DOCTYPE svg PUBLIC "-//W3C//DTD SVG 1.1//EN" "http://www.w3.org/Graphics/SVG/1.1/DTD/svg11.dtd">
<!-- Creator: CorelDRAW 2018 (64 Bit) -->
<svg xmlns="http://www.w3.org/2000/svg" xml:space="preserve" width="297mm" height="210mm" version="1.1" style="shape-rendering:geometricPrecision; text-rendering:geometricPrecision; image-rendering:optimizeQuality; fill-rule:evenodd; clip-rule:evenodd"
viewBox="0 0 29700 21000"
 xmlns:xlink="http://www.w3.org/1999/xlink"
 data-name="Layer 1">
 <defs>
  <style type="text/css">
   <![CDATA[
    .fil0 {fill:#3F3D56}
    .fil1 {fill:#9FFFD3}
    .fil2 {fill:#F2F2F2}
   ]]>
  </style>
 </defs>
 <g id="Camada_x0020_1">
  <metadata id="CorelCorpID_0Corel-Layer"/>
  <path class="fil0" d="M8188.9 18431.57c0,0 132.29,-555.63 1058.33,-370.42 926.04,185.21 1058.33,370.42 1058.33,370.42l-2116.66 0z"/>
  <path class="fil0" d="M3624.83 17703.96c0,0 132.29,-555.63 1058.33,-370.42 926.04,185.21 1058.33,370.42 1058.33,370.42l-2116.66 0z"/>
  <path class="fil0" d="M11363.9 18431.57c0,0 -740.83,-449.79 -1058.33,0l1058.33 0z"/>
  <path class="fil0" d="M7911.08 17161.57c0,0 -740.83,-449.79 -1058.33,0l1058.33 0z"/>
  <path class="fil0" d="M3755.15 16748.31c220.56,409.04 688.67,584.63 688.67,584.63 0,0 110.51,-487.59 -110.05,-896.63 -220.56,-409.04 -688.67,-584.63 -688.67,-584.63 0,0 -110.51,487.59 110.05,896.63z"/>
  <path class="fil1" d="M3906.75 16613.74c398.2,239.57 551.56,715.43 551.56,715.43 0,0 -492.25,87.43 -890.46,-152.14 -398.21,-239.57 -551.56,-715.43 -551.56,-715.43 0,0 492.25,-87.43 890.46,152.14z"/>
  <path class="fil0" d="M25770.46 18100.84c0,0 132.29,-555.63 1058.33,-370.42 926.04,185.21 1058.33,370.42 1058.33,370.42l-2116.66 0z"/>
  <path class="fil0" d="M23653.79 18431.57c-643.4,-100.72 -1262.02,-186.4 -1855.86,-257.02l228.68 -457.35c-79.38,-26.46 -423.33,238.13 -423.33,238.13l291.04 -1322.92c-396.88,52.92 -582.08,1402.29 -582.08,1402.29l-449.79 -449.79 221.41 509.25c-1817.19,-190.94 -3385.26,-250.53 -4703.39,-236.86l195.72 -391.45c-79.38,-26.46 -423.33,238.13 -423.33,238.13l291.04 -1322.92c-396.88,52.92 -582.08,1402.29 -582.08,1402.29l-449.79 -449.79 234.51 539.38c-899.62,24.29 -1805.34,101.64 -2698.17,217.68 195.3,-608.43 877.34,-1193.32 877.34,-1193.32 -524.42,163.15 -797.25,428.95 -938.46,675.34 -2.65,-79.62 -3.95,-162.64 -3.95,-243.06 0,-1168.7 193.27,-2330.91 570.73,-3436.05 377.46,-1105.14 -1058.33,2381.25 -899.58,3968.75l20.14 282c-920.73,143.64 -1382.75,286.86 -1382.75,286.86l12461.95 0.43z"/>
  <g>
   <path class="fil0" d="M16748.17 19635.42c0,0 4868.33,-714.38 7884.58,0l-7884.58 0zm0 0l0 0 0 0z"/>
  </g>
  <g>
   <path class="fil0" d="M9577.96 20614.38c0,0 4868.33,-714.38 7884.58,0l-7884.58 0zm0 0l0 0 0 0z"/>
  </g>
  <g>
   <path class="fil0" d="M18600.25 20877.04c0,0 2883.43,-731.27 4669.9,0l-4669.9 0zm0 0l0 0 0 0z"/>
  </g>
  <path class="fil0" d="M26653.87 17941l-47.03 -24.29c610.71,-1180.68 284.14,-2713.97 -97.33,-3792.33 -258.59,-724.34 -590.63,-1423.9 -986.53,-2082.31l44.73 -28.27c398.2,662.26 731.94,1365.39 991.52,2092.78 385.14,1088.36 714,2636.95 94.64,3834.42z"/>
  <rect class="fil0" transform="matrix(0.17975 -0.98371 0.98371 0.17975 26763.5 13902.7)" width="1909.77" height="52.9"/>
  <rect class="fil0" transform="matrix(0.732071 -0.681228 0.681228 0.732071 24785.4 13660.6)" width="52.94" height="2602.21"/>
  <rect class="fil0" transform="matrix(0.585847 -0.810422 0.810422 0.585847 27111.8 16961)" width="1534.81" height="52.92"/>
  <circle class="fil1" cx="27265.35" cy="11261.36" r="264.58"/>
  <circle class="fil0" cx="24381.4" cy="13298.65" r="264.58"/>
  <circle class="fil0" cx="25545.56" cy="13563.24" r="264.58"/>
  <circle class="fil1" cx="25016.4" cy="14595.11" r="264.58"/>
  <circle class="fil0" cx="28323.69" cy="15256.57" r="264.58"/>
  <circle class="fil0" cx="27450.56" cy="15547.61" r="264.58"/>
  <circle class="fil0" cx="28059.1" cy="16394.28" r="264.58"/>
  <circle class="fil0" cx="25280.98" cy="11578.86" r="264.58"/>
  <path class="fil2" d="M9797.02 10176.37c0,3270.51 -1944.27,4412.46 -4342.65,4412.46 -2398.38,0 -4342.65,-1141.94 -4342.65,-4412.46 0,-3270.52 4342.66,-7431.12 4342.66,-7431.12 0,0 4342.64,4160.61 4342.64,7431.12z"/>
  <polygon class="fil0" points="5296.19,14088.54 5340.64,11351.43 7191.59,7965.21 5347.63,10922.03 5367.6,9691.32 6643.29,7241.41 5372.9,9365.62 5372.9,9365.62 5408.88,7152.12 6774.87,5201.69 5414.51,6804.06 5436.98,2745.24 5295.8,8118.35 5307.39,7896.71 3918.56,5770.86 5285.13,8322.21 5155.73,10794.32 5151.86,10728.7 3550.79,8491.57 5147.02,10960.5 5130.83,11269.67 5127.94,11274.33 5129.27,11299.7 4800.95,17571.65 5239.6,17571.65 5292.22,14332.06 6884.54,11869.19 "/>
  <path class="fil2" d="M24121.14 9201.39c0,3995.51 -2375.27,5390.59 -5305.31,5390.59 -2930.04,0 -5305.3,-1395.08 -5305.3,-5390.59 0,-3995.51 5305.3,-9078.43 5305.3,-9078.43 0,0 5305.31,5082.92 5305.31,9078.43z"/>
  <polygon class="fil0" points="18622.57,13980.8 18676.89,10636.92 20938.15,6500.05 18685.41,10112.35 18709.85,8608.81 20268.3,5615.84 18716.31,8210.93 18716.31,8210.93 18760.23,5506.73 20429.06,3123.94 18767.14,5081.49 18794.6,122.96 18622.09,6687.16 18636.27,6416.36 16939.58,3819.29 18609.07,6936.19 18450.96,9956.3 18446.28,9876.16 16490.26,7143.12 18440.35,10159.34 18420.56,10537.04 18417.04,10542.73 18418.65,10573.74 18017.55,18236.04 18553.43,18236.04 18617.75,14278.3 20563.02,11269.46 "/>
 </g>
</svg>
