<?xml version="1.0" encoding="UTF-8"?>
<!DOCTYPE svg PUBLIC "-//W3C//DTD SVG 1.1//EN" "http://www.w3.org/Graphics/SVG/1.1/DTD/svg11.dtd">
<!-- Creator: CorelDRAW 2018 (64 Bit) -->
<svg xmlns="http://www.w3.org/2000/svg" xml:space="preserve" width="210mm" height="297mm" version="1.1" style="shape-rendering:geometricPrecision; text-rendering:geometricPrecision; image-rendering:optimizeQuality; fill-rule:evenodd; clip-rule:evenodd"
viewBox="0 0 21000 29700"
 xmlns:xlink="http://www.w3.org/1999/xlink"
 data-name="Layer 1">
 <defs>
  <style type="text/css">
   <![CDATA[
    .fil5 {fill:#2F2E41}
    .fil2 {fill:#3F3D56}
    .fil4 {fill:#9FFFD3}
    .fil3 {fill:#CCCCCC}
    .fil0 {fill:#F2F2F2}
    .fil1 {fill:white}
   ]]>
  </style>
 </defs>
 <g id="Camada_x0020_1">
  <metadata id="CorelCorpID_0Corel-Layer"/>
  <rect class="fil0" transform="matrix(0.860304 -0.509782 0.509782 0.860304 1.82922 14585.8)" width="16673.13" height="846.21"/>
  <rect class="fil0" transform="matrix(0.860304 -0.509782 0.509782 0.860304 3119.45 15298.4)" width="16673.13" height="846.21"/>
  <rect class="fil0" transform="matrix(0.860304 -0.509782 0.509782 0.860304 5880.78 16077.8)" width="16673.13" height="846.21"/>
  <circle class="fil1" cx="9344.8" cy="11558.9" r="4490.92"/>
  <path class="fil2" d="M4820.47 11558.9c0,-2494.72 2029.6,-4524.33 4524.33,-4524.33 2494.73,0 4524.33,2029.61 4524.33,4524.33 0,2494.72 -2029.6,4524.32 -4524.33,4524.32 -2494.73,0 -4524.33,-2029.6 -4524.33,-4524.32zm66.81 0c0,2457.88 1999.63,4457.52 4457.52,4457.52 2457.89,0 4457.52,-1999.64 4457.52,-4457.52 0,-2457.88 -1999.63,-4457.52 -4457.52,-4457.52 -2457.89,0 -4457.52,1999.64 -4457.52,4457.52z"/>
  <path class="fil2" d="M8544.24 11578.42l0 0c0.01,0.01 0.01,0.01 0.01,0.01 0,-442.06 358.5,-800.56 800.56,-800.56 442.06,0 800.56,358.5 800.56,800.56 0,442.05 -358.5,800.55 -800.56,800.55 0,0 0,0 0,0 -442.06,0 -800.56,-358.5 -800.56,-800.55l-0.01 -0.01zm1601.12 39.05c-420.29,0.38 -761.13,341.21 -761.5,761.52l0 0c-0.01,420.48 341,761.49 761.5,761.49 420.49,0 761.5,-341.01 761.5,-761.51 0,-420.5 -341.01,-761.5 -761.5,-761.5z"/>
  <path class="fil3" d="M7821.79 11578.42l0 0c0.01,-840.98 682.03,-1523 1523.02,-1523 840.99,0 1523,682.02 1523,1523.01 0,840.98 -682.01,1523 -1523,1523 0,0 0,0 0,0 -841,0 -1523.02,-682.02 -1523.02,-1523 0,0 0,0 0,0l0 -0.01zm3046.02 39.05c-819.43,0.01 -1483.96,664.53 -1483.96,1483.96 0,819.43 664.53,1483.96 1483.95,1483.96 819.43,0 1483.96,-664.53 1483.96,-1483.96 -0.73,-819.04 -664.91,-1483.22 -1484,-1483.95l0.05 -0.01z"/>
  <path class="fil3" d="M6376.88 11578.42c0,-1638.85 1329.06,-2967.91 2967.92,-2967.91 1638.85,0 2967.91,1329.06 2967.91,2967.92 0,1638.85 -1329.06,2967.91 -2967.91,2967.91 -1638.08,-1.46 -2966.46,-1329.84 -2967.91,-2968.01l-0.01 0.09zm2967.92 -2928.86c-1617.28,0.01 -2928.85,1311.58 -2928.85,2928.87 0,1617.28 1311.57,2928.85 2928.86,2928.85 1617.28,0 2928.85,-1311.57 2928.85,-2928.85 -1.42,-1616.53 -1312.33,-2927.44 -2928.95,-2928.87l0.09 0z"/>
  <circle class="fil4" cx="9344.8" cy="11558.9" r="370.99"/>
  <circle class="fil4" cx="8388.04" cy="12632.81" r="370.99"/>
  <circle class="fil4" cx="12120.68" cy="12476.61" r="370.99"/>
  <circle class="fil5" cx="9344.8" cy="11558.9" r="175.73"/>
  <circle class="fil5" cx="12120.68" cy="12476.61" r="175.73"/>
  <circle class="fil5" cx="8388.04" cy="12652.34" r="175.73"/>
  <circle class="fil4" cx="1143.98" cy="9586.79" r="175.73"/>
  <polygon class="fil5" points="9335.03,9596.57 1622.34,9596.57 1622.34,9557.52 9374.11,9557.52 9374.11,11568.64 9335.03,11568.64 "/>
  <path class="fil5" d="M636.31 9586.79c0.01,0.01 0.01,0.01 0.01,0.01 0,-280.33 227.34,-507.67 507.67,-507.67 280.33,0 507.67,227.34 507.67,507.67 0,280.33 -227.34,507.67 -507.67,507.67 0,0 0,0 0,0 -280.33,0 -507.67,-227.34 -507.67,-507.67 0,0 0,0 0,0l-0.01 -0.01zm1015.34 39.06c0.01,0 0.01,0 0.01,0 -258.77,0 -468.62,209.85 -468.62,468.62 0,258.77 209.85,468.62 468.62,468.62 258.77,0 468.62,-209.85 468.62,-468.62 0,0 0,0 0,0 -0.22,-258.64 -209.97,-468.39 -468.63,-468.62z"/>
  <circle class="fil4" cx="2315.53" cy="14643.97" r="175.73"/>
  <path class="fil5" d="M1807.86 14643.97l0 0c0.01,-280.34 227.35,-507.68 507.68,-507.68 280.33,0 507.67,227.34 507.67,507.67 0,280.32 -227.34,507.66 -507.67,507.66 -280.33,0 -507.67,-227.34 -507.67,-507.66l-0.01 0.01zm1015.33 39.05c0.02,-0.01 0.02,-0.01 0.02,-0.01 -258.77,0 -468.62,209.84 -468.62,468.61 0,258.77 209.85,468.62 468.62,468.62 258.77,0 468.62,-209.85 468.62,-468.62 -0.23,-258.64 -209.98,-468.38 -468.64,-468.61l0 0.01z"/>
  <circle class="fil4" cx="17568.36" cy="10406.88" r="175.73"/>
  <path class="fil5" d="M17060.69 10406.88c0,-280.33 227.34,-507.67 507.67,-507.67 280.33,0 507.67,227.34 507.67,507.67 0,280.33 -227.34,507.67 -507.67,507.67 0,0 0,0 0,0 -280.33,0 -507.67,-227.34 -507.67,-507.67 0,0 0,0 0,0zm1015.34 39.05c-258.64,0.24 -468.39,209.98 -468.62,468.64l0 0c0,258.75 209.85,468.6 468.62,468.6 258.77,0 468.62,-209.85 468.62,-468.62 0,-258.77 -209.85,-468.62 -468.62,-468.62 0,0 0,0 0,0z"/>
  <polygon class="fil5" points="12101.14,10465.75 17079.91,10387.36 17080.52,10426.38 12140.19,10504.2 12140.19,12476.61 12101.14,12476.61 "/>
  <polygon class="fil5" points="2803.68,14624.45 8368.51,14624.45 8368.51,12652.35 8407.56,12652.35 8407.56,14663.47 2803.68,14663.47 "/>
  <rect class="fil3" x="70.07" y="10504.5" width="2147.83" height="136.68"/>
  <rect class="fil3" x="70.07" y="10895.02" width="2147.83" height="136.68"/>
  <rect class="fil3" x="70.07" y="11285.54" width="2147.83" height="136.68"/>
  <rect class="fil3" x="1241.6" y="15561.68" width="2147.83" height="136.68"/>
  <rect class="fil3" x="1241.6" y="15952.19" width="2147.83" height="136.68"/>
  <rect class="fil3" x="1241.6" y="16342.71" width="2147.83" height="136.68"/>
  <rect class="fil3" x="16494.44" y="11344.11" width="2147.83" height="136.68"/>
  <rect class="fil3" x="16494.44" y="11734.63" width="2147.83" height="136.68"/>
  <rect class="fil3" x="16494.44" y="12125.14" width="2147.83" height="136.68"/>
 </g>
</svg>
