<?xml version="1.0" encoding="UTF-8"?>
<!DOCTYPE svg PUBLIC "-//W3C//DTD SVG 1.1//EN" "http://www.w3.org/Graphics/SVG/1.1/DTD/svg11.dtd">
<!-- Creator: CorelDRAW 2018 (64 Bit) -->
<svg xmlns="http://www.w3.org/2000/svg" xml:space="preserve" width="297mm" height="210mm" version="1.1" style="shape-rendering:geometricPrecision; text-rendering:geometricPrecision; image-rendering:optimizeQuality; fill-rule:evenodd; clip-rule:evenodd"
viewBox="0 0 29700 21000"
 xmlns:xlink="http://www.w3.org/1999/xlink">
 <defs>
  <style type="text/css">
   <![CDATA[
    .str1 {stroke:#E6E7E8;stroke-width:20;stroke-miterlimit:22.9256}
    .str0 {stroke:#D2D3D5;stroke-width:20;stroke-miterlimit:22.9256}
    .str2 {stroke:#EFF2F3;stroke-width:20;stroke-miterlimit:22.9256}
    .fil0 {fill:none}
    .fil1 {fill:#D2D3D5}
    .fil2 {fill:#E6E7E8}
    .fil3 {fill:#EFF2F3}
   ]]>
  </style>
 </defs>
 <g id="Camada_x0020_1">
  <metadata id="CorelCorpID_0Corel-Layer"/>
  <rect class="fil0 str0" width="29700" height="21000"/>
  <path class="fil1 str0" d="M29700 18499.25l0 277.87 -1644.65 1644.65c-38.2,38.21 -100.72,38.21 -138.93,0l0 0c-38.21,-38.21 -38.21,-100.73 0,-138.94l1783.58 -1783.58z"/>
  <path class="fil0 str0" d="M16022.92 0l1232.38 0 -12729.33 12729.33c-169.45,169.46 -446.72,169.47 -616.2,-0.02l0 0c-169.46,-169.45 -169.44,-446.71 0.01,-616.17l12113.14 -12113.14z"/>
  <path class="fil2" d="M13716.37 0l277.87 0 -10076.64 10076.64c-38.21,38.21 -100.72,38.21 -138.94,0l0 0c-38.21,-38.21 -38.21,-100.73 0,-138.93l9937.71 -9937.71z"/>
  <path class="fil0 str1" d="M19447.24 0l2.78 0 -10978.69 10978.69c-0.38,0.38 -1.01,0.38 -1.39,0l0 0c-0.38,-0.38 -0.38,-1.01 0,-1.39l10977.3 -10977.3z"/>
  <path class="fil0 str0" d="M23071.87 0l1232.38 0 -8889.67 8889.67c-169.45,169.46 -446.72,169.47 -616.2,-0.02l0 0c-169.46,-169.45 -169.44,-446.71 0.01,-616.17l8273.48 -8273.48z"/>
  <path class="fil2" d="M29422.13 0l277.87 0 -8492.45 8492.45c-38.21,38.21 -100.72,38.21 -138.94,0l0 0c-38.21,-38.21 -38.21,-100.73 0,-138.93l8353.52 -8353.52z"/>
  <path class="fil2 str1" d="M29700 7742.1l0 2.78 -5268.27 5268.27c-0.38,0.38 -1.01,0.38 -1.39,0l0 0c-0.38,-0.38 -0.38,-1.01 0,-1.39l5269.66 -5269.66z"/>
  <path class="fil0 str0" d="M29700 9747.88l0 1232.38 -5094.52 5094.52c-169.45,169.46 -446.72,169.47 -616.2,-0.02l0 0c-169.46,-169.45 -169.44,-446.71 0.01,-616.17l5710.71 -5710.71z"/>
  <polygon class="fil0 str2" points="29700,13928.63 29700,13931.41 22631.41,21000 22628.63,21000 "/>
  <path class="fil2 str1" d="M15058.01 21000l-277.87 0 11322.95 -11322.95c38.2,-38.21 100.72,-38.21 138.93,0l0 0c38.21,38.21 38.21,100.73 0,138.94l-11184.01 11184.01z"/>
  <path class="fil0 str2" d="M12513.54 21000l-2.78 0 10027.09 -10027.09c0.39,-0.38 1.01,-0.38 1.39,0l0 0c0.38,0.38 0.38,1 0,1.39l-10025.7 10025.7z"/>
  <path class="fil0 str0" d="M10338.99 21000l-1232.38 0 10444.09 -10444.09c169.46,-169.45 446.72,-169.47 616.17,-0.01l0 0c169.49,169.48 169.48,446.75 0.02,616.2l-9827.9 9827.9z"/>
  <path class="fil0 str0" d="M5498.96 21000l-2.78 0 12932.65 -12932.65c0.39,-0.38 1.01,-0.38 1.39,0l0 0c0.38,0.38 0.38,1 0,1.39l-12931.26 12931.26z"/>
  <path class="fil2" d="M272.42 21000l-272.42 0 0 -5.45 13514.05 -13514.05c38.2,-38.21 100.72,-38.21 138.93,0l0 0c38.21,38.21 38.21,100.73 0,138.94l-13380.56 13380.56z"/>
  <path class="fil0 str0" d="M-0 10937.96l0 -1232.38 3660.01 -3660.01c169.46,-169.45 446.72,-169.47 616.17,-0.01l0 0c169.49,169.48 169.48,446.75 0.02,616.2l-4276.2 4276.2z"/>
  <path class="fil0 str1" d="M8516.03 0l2.78 0 -7415.75 7415.75c-0.38,0.38 -1.01,0.38 -1.39,0l0 0c-0.38,-0.38 -0.38,-1.01 0,-1.39l7414.36 -7414.36z"/>
  <path class="fil3" d="M-0 6610.13l0 -277.87 5753.09 -5753.09c38.2,-38.21 100.72,-38.21 138.93,0l0 0c38.21,38.21 38.21,100.73 0,138.94l-5892.02 5892.02z"/>
  <path class="fil0 str0" d="M2269.38 1418.02l1418.02 -1418.02 1232.38 0 -2034.21 2034.21c-169.45,169.46 -446.72,169.47 -616.2,-0.02l0 0c-169.46,-169.45 -169.44,-446.71 0.01,-616.17z"/>
  <path class="fil0 str1" d="M-0 14747.94l3373.87 -3373.87c0.39,-0.38 1.01,-0.38 1.39,0l0 0c0.38,0.38 0.38,1 0,1.39l-3375.26 3375.26 0 -2.78z"/>
  <rect class="fil0 str1" x="6798.16" y="2104.31" width="2177.72" height="2177.72"/>
  <rect class="fil0 str2" x="1812.33" y="13967.16" width="2177.72" height="2177.72"/>
  <rect class="fil0 str0" x="9720.89" y="12018.67" width="2177.72" height="2177.72"/>
  <rect class="fil0 str1" x="19921.8" y="17462.98" width="2177.72" height="2177.72"/>
  <rect class="fil0 str0" x="26490.5" y="5960.56" width="2177.72" height="2177.72"/>
 </g>
</svg>
