<?xml version="1.0" encoding="UTF-8"?>
<!DOCTYPE svg PUBLIC "-//W3C//DTD SVG 1.1//EN" "http://www.w3.org/Graphics/SVG/1.1/DTD/svg11.dtd">
<!-- Creator: CorelDRAW 2018 (64 Bit) -->
<svg xmlns="http://www.w3.org/2000/svg" xml:space="preserve" width="297mm" height="210mm" version="1.1" style="shape-rendering:geometricPrecision; text-rendering:geometricPrecision; image-rendering:optimizeQuality; fill-rule:evenodd; clip-rule:evenodd"
viewBox="0 0 29700 21000"
 xmlns:xlink="http://www.w3.org/1999/xlink">
 <defs>
  <style type="text/css">
   <![CDATA[
    .fil0 {fill:#E6E6E6}
    .fil1 {fill:#F0F0F0}
   ]]>
  </style>
 </defs>
 <g id="Camada_x0020_1">
  <metadata id="CorelCorpID_0Corel-Layer"/>
  <path class="fil0" d="M17673.34 12107.94c-347.64,175.27 -168.66,445.67 -348.8,715.74 -106.91,160.3 -484.48,214.94 -421.79,618.24 113.84,732.46 1209.34,499.28 1408.55,604.08l1283.82 863c159.19,125.6 390.82,1295.38 1139.25,1042.92 375.95,-126.82 175.63,-431.68 387.09,-675.26 64.81,-74.68 179.09,-94.13 301.86,-214.56 105.42,-103.41 190.61,-233.05 157.54,-435.6 -41.53,-254.45 -345.82,-420 -582.61,-478.47 -820.11,-202.46 -501.51,338.91 -1678.32,-467.96 -225.87,-154.87 -471.07,-290.99 -568.9,-534.28 -168.63,-419.39 -486.6,-1335.84 -1077.69,-1037.85z"/>
  <path class="fil1" d="M27019.36 2864.3c-489.25,218.13 -699.92,1029.62 -633.14,1729.7 106.32,1114.36 1060.97,155.26 1273.59,-84.16 409.19,-460.76 1462.75,-472.93 1158.25,-1134.05 -169.51,-368.1 -1244.9,-758.39 -1798.7,-511.49z"/>
  <path class="fil1" d="M24251.27 11956.99c-1430.58,385.95 -806.96,2453.48 534.16,2069.72 1287.19,-368.34 798.66,-2429.31 -534.16,-2069.72z"/>
  <path class="fil1" d="M11221.68 20642.3l1091.83 0c62.29,-713.36 -86.76,-1658.34 -627.39,-1875.14 -1022.66,-410.09 -2793.84,809.68 -1190.24,1306.11 296.37,91.74 570.43,321.25 725.8,569.03z"/>
  <path class="fil0" d="M12997.04 5763.87c-26.76,345.43 -50.76,455.36 216.68,606.1 500.02,114.21 403.81,-405.26 659.07,-594.96l1248.84 -721.34c281.83,-104.42 358.08,29.38 620.56,-71.95 333.25,-128.66 370.95,-592.72 -179.97,-691.63 -9.84,-196.24 -11.44,-356.24 -78.72,-495.51 -557.87,-198.74 -529.47,140.81 -731.12,427.77l-1212.11 763.18c-294.14,117.46 -349.92,-21.03 -621.21,69.3 -481.12,160.21 -213.73,509.2 77.98,709.04z"/>
  <path class="fil0" d="M20201.02 7674.32c-209.59,119.77 -396.78,112.05 -427.94,357.11 -69.89,549.74 617.21,312.26 1009.9,537.99 189.03,108.63 307.14,185.06 505.32,303.79 162.42,97.3 328.01,180.6 481.9,272.04 348.54,207.14 174.06,183.27 333.42,476.08 206.53,379.5 753.57,282.66 634.25,-433.37 177.87,-105.09 313.18,-112.01 352.22,-321.73 42.82,-229.95 -119.38,-353.11 -316.66,-391.47 -624.21,-121.31 8.55,274.95 -1109.9,-380.86 -434.59,-254.82 -534.09,-208.02 -776.96,-669.85 -177.26,-337.03 -749.39,-458.99 -685.55,250.27z"/>
  <path class="fil1" d="M9518.66 14030.82c-77.81,388.95 28.69,183.56 201.39,554.96 47.42,101.94 67.07,179.64 110.32,244.76 291.94,43.32 387.91,-41.34 509.17,-256.05 197.82,-350.33 762.39,-576.38 1005.44,-568.24 906.12,30.26 388.99,-544.42 341.25,-674.76 -54.48,-148.79 34.66,-90.74 -89.71,-214.47 -373.18,-371.25 -453.41,390.08 -832.56,606.31 -18.73,10.68 -314.97,168.92 -346.77,180.08 -360.18,126.27 -451.55,-104.72 -898.53,127.41z"/>
  <path class="fil0" d="M18797.42 2062.24c467.68,159.25 436.5,-926.75 1410.5,-858.4 336.67,23.61 368.53,30.26 601.93,-116.86 21.1,-298.54 -71.41,-249.77 -180.1,-463.94 -0.06,-0.15 -234.51,-770.75 -664.49,-45.12 -124.31,209.79 -522.84,479.76 -795.39,538.86 -186.97,40.52 -1010.6,-124.26 -635.68,495.97 55.36,91.61 20.57,8.36 69.85,116.01 168.02,367.18 -48.29,189.03 193.38,333.48z"/>
  <path class="fil0" d="M27814.18 10636.33l427.13 -646.29c-51.51,-392.63 -601.89,-104.92 -1154.62,-489.86 -299.53,-208.59 -180.21,-130.94 -339.64,-469.56 -99.2,-210.69 -214.51,-332.9 -505.59,-313.99 -39.21,83.08 -101.03,278.47 -153.8,356.44 -77.48,114.5 -203.69,109.46 -174.57,328.23 44.84,336.79 432.67,191.65 689.75,297.2 878.27,360.6 664.56,953.13 1211.34,937.83z"/>
  <path class="fil1" d="M11056.2 10163.71c-982.97,312.85 -465.91,1621.14 411.51,1317.02 739.48,-256.29 448.22,-1590.64 -411.51,-1317.02z"/>
  <path class="fil1" d="M27742.93 18541.77c429.87,-779.46 1.93,-1727.75 -1111.65,-1224.01 -556.55,251.78 -2.1,573.04 266.53,708.41 453.94,228.74 280.64,594.15 845.12,515.6z"/>
  <path class="fil1" d="M10972.55 2627.12c571.24,53.47 375.78,-252.16 735.87,-462.98 316.59,-185.35 603.8,-205.11 580.43,-626.44 -1004.41,-733.47 -1909.25,123.25 -1316.3,1089.42z"/>
  <path class="fil1" d="M13041.92 14193.96c28.68,518.57 386.93,406.52 697.79,722.77 0.03,0 582.64,824.18 756,103.43 291.92,-1213.57 -839.51,-1304.34 -1453.79,-826.2z"/>
  <path class="fil1" d="M22110.95 2194.25c-207.28,57.44 -275.92,162.6 -435.41,267.3 -196.29,128.87 -1009.64,140.73 -727.38,609.72 47.72,79.28 940.5,876.98 1350.9,14.42 133.18,-279.94 359.23,-1043.16 -188.11,-891.44z"/>
  <path class="fil1" d="M16235.63 10171.32c394.44,60.13 895.59,-176.99 1009.88,-398.66 251.78,-488.34 -487,-439.59 -749.77,-621.85 -1231.64,-854.18 -759.74,738.27 -260.11,1020.51z"/>
  <path class="fil1" d="M16339.23 18136.76c-236.11,177.08 -4.4,1814.78 1210.07,1040.73 418.07,-266.46 359.32,-573.91 -207.8,-685.98 -428.23,-84.64 -729.24,-559.51 -1002.27,-354.75z"/>
  <path class="fil1" d="M16145.83 6861.95c-250.49,96.5 -828.25,362.15 -495.03,696.55 179.86,180.48 309.57,89.43 532.31,171.11 0.46,0.15 1376.52,1020.5 825.85,-424.62 -149.36,-391.97 -393.05,-624.1 -863.13,-443.04z"/>
  <path class="fil1" d="M13167.31 9565.23c478.43,-15.67 345.33,-284.47 605.2,-533.72 220.43,-211.39 506.45,-295.14 537.79,-662.48 -258.2,-292.5 -1008.64,-305.39 -1262.72,-61.59 -293.96,282.08 -158.48,987.12 119.73,1257.79z"/>
  <path class="fil1" d="M23081.01 5125.41c-78.58,446.13 358.23,1694.16 1369.25,748.5 786.81,-735.96 -352.44,-514.92 -848.3,-764.03 -222.81,-111.94 -335.16,-96.17 -520.95,15.53z"/>
  <path class="fil1" d="M26694.78 756.75c-649.05,287.03 -232.37,1727.81 434.46,1487.1 673.76,-243.22 225.68,-1779.03 -434.46,-1487.1z"/>
  <path class="fil1" d="M11712.51 16684.51c-685.17,291.32 -591.87,1755.08 181.3,1469.01 678.24,-250.93 538.64,-1775.1 -181.3,-1469.01z"/>
  <path class="fil1" d="M25287.02 1656.75c-690.67,469.5 406.04,1563.77 962.79,1154.73 556.52,-408.82 -370.04,-1557.64 -962.79,-1154.73z"/>
  <path class="fil1" d="M12922.16 17545.89c-842.95,307.82 -822.08,1549.55 103.63,1224.34 261.91,-91.99 547.28,-419.65 596.47,-688.5 85.44,-466.94 -282.79,-688.24 -700.1,-535.84z"/>
  <path class="fil1" d="M13105.2 19056.47c-840.29,278.32 -709.07,1296.39 215.7,1047.12 841.13,-226.7 711.97,-1354.37 -215.7,-1047.12z"/>
  <path class="fil1" d="M28101.3 1403.66c-646.1,377.57 -287.39,1626.81 372.47,1324.52 619.42,-283.75 289.31,-1711.29 -372.47,-1324.52z"/>
  <path class="fil1" d="M25102.81 3151.2c-724.06,390.51 95.26,1283.44 774,1027.98 755.39,-284.29 -96.58,-1393.32 -774,-1027.98z"/>
  <path class="fil1" d="M10229.76 17345.68c-697.09,413.31 -177.54,1690.7 440.24,1266.19 493.63,-339.21 258.59,-1680.5 -440.24,-1266.19z"/>
  <path class="fil1" d="M22732.25 20642.3l1944.71 0c-190.8,-217.1 -601.5,-293.6 -740.9,-525.43 -192.64,-320.35 -119.14,-569.46 -716.48,-411.64 -89.95,252.92 -51.66,226.8 -61.42,502.08 -325.15,60.76 -415.95,106.73 -425.91,434.99z"/>
  <path class="fil1" d="M19152.28 12174.5c348.12,241.24 280.29,51.25 621.54,10 403.48,-48.75 333.88,220.95 728.76,39.94 126.74,-406.9 -339.7,-930.46 -624.41,-951.64 -434.74,-32.32 -752.47,631.5 -725.89,901.7z"/>
  <path class="fil1" d="M27462.6 13739.48c-615.46,368.53 -158.18,1256.78 495.18,974.63 590.28,-254.91 192.86,-1386.62 -495.18,-974.63z"/>
  <path class="fil1" d="M23062.06 15584.55c-664.52,366.54 -152.55,1290.19 491.29,975.4 569.77,-278.61 163.88,-1336.79 -491.29,-975.4z"/>
  <path class="fil1" d="M20346.49 19267.62c253.62,183.73 335.76,77.41 580.99,215.41 221.42,124.59 254.98,280.82 620.24,221.28 105.72,-360.66 -63.42,-1381.55 -911.8,-916.3 -232.54,127.55 -319.72,178.24 -289.43,479.61z"/>
  <path class="fil1" d="M17868.8 3675.05c-333.77,-55.36 -525.95,-248.13 -778.54,48.38 -170.58,200.23 -270.2,564.1 -193.47,859.87 307.43,100.67 422.78,-89.08 623.85,-196.38 336.98,-179.88 313.24,27.39 617.25,-286.03 -30.24,-205.65 12.8,-108.7 -192.29,-335.71 -90.34,-100.02 -33.17,-30.35 -76.8,-90.13z"/>
  <path class="fil1" d="M10122.77 5821.77c170.1,396.41 208.54,163.45 491.02,353.85 213.05,143.6 189.75,314.01 580.48,276.16 340.26,-1062.44 -779.29,-1285.87 -1071.5,-630.01z"/>
  <path class="fil1" d="M29022.78 6574.38c-144.35,-379.61 -1073.97,-747.87 -1160.36,179.64 -48.53,521.09 220.04,426.41 475.36,230.33 272.94,-209.57 551.16,-117.28 685,-409.97z"/>
  <path class="fil1" d="M24930.78 10672.11c-619.03,287.58 -234.23,1109.35 362.96,859.49 514.76,-215.39 204.65,-1123.2 -362.96,-859.49z"/>
  <path class="fil1" d="M25962.3 11477.45c-606.4,170.95 -374.42,1062.83 252.31,904.29 547.83,-138.6 372.56,-1080.45 -252.31,-904.29z"/>
  <path class="fil1" d="M23683.64 10542.97c-601.04,205.11 -218.65,1157.29 382.02,857.17 470.19,-234.93 238.22,-1068.82 -382.02,-857.17z"/>
  <path class="fil1" d="M22661.25 11418.85c-554.99,292.33 -186.73,1064.59 374.13,860.51 551.14,-200.54 220.3,-1173.6 -374.13,-860.51z"/>
  <path class="fil1" d="M23528.71 997c-625,203.47 -266.62,1076.84 313.53,858.56 497.26,-187.1 241.03,-1039.12 -313.53,-858.56z"/>
  <path class="fil1" d="M19331.81 4808.73c-159.71,567.39 297.4,1103.64 847.55,669.22 294.8,-232.78 162.97,-350.06 -153.36,-446.1 -297.03,-90.17 -397.75,-298.01 -694.19,-223.12z"/>
  <path class="fil1" d="M17857.55 17578.43l886 38.18c343.96,2.8 257.51,-262.64 96.93,-444.97 -429.04,-487.15 -992.66,-117.54 -982.93,406.79z"/>
  <path class="fil1" d="M17067.2 15546.56c-159.49,78.49 -165.68,67.22 -281.71,209.95 -450.22,553.71 413.72,370.02 639.88,399.63 805.8,105.44 128.68,-849.15 -358.17,-609.58z"/>
  <path class="fil1" d="M24674.14 19318.49c356.24,-15.86 138.97,-46.19 396.09,-203.14 134.56,-82.14 279.76,-74.11 430.35,-144.22 20.45,-416.78 -494.6,-492.75 -620.19,-457.28 -290.29,81.96 -276.38,569.29 -206.25,804.64z"/>
  <path class="fil1" d="M14039.92 3388.85c149.71,-576.01 -97.07,-1022.7 -671.5,-665.28 -281.23,174.98 -260.77,311.73 73.26,401.97 460.35,124.35 206.22,274.1 598.24,263.31z"/>
  <path class="fil1" d="M10693.61 202.19c-126.88,63.58 -277.6,146.03 -127.93,516.56 64.37,159.35 248.5,397.37 497.37,293.46 367.33,-153.34 44.26,-1017.34 -369.44,-810.02z"/>
  <path class="fil1" d="M11882.44 7947.39c-423.57,269.7 321.14,813.9 666.15,557.81 342.28,-254.06 -237.42,-830.79 -666.15,-557.81z"/>
  <path class="fil1" d="M16347.44 5574.73c-109.08,65.03 -105.93,42.21 -161.88,204.26 -119.84,347.07 71.71,804.05 404.86,634.91 327.36,-166.18 222.57,-1116.75 -242.98,-839.17z"/>
  <path class="fil1" d="M12535.18 7196.42c-403.55,223.38 30.31,957.83 417.77,782.74 412.49,-186.38 -61.79,-979.77 -417.77,-782.74z"/>
  <path class="fil1" d="M23690.67 7442.76l310.11 10.37c171.42,-265.09 288.81,-843.55 -129.97,-891.36 -417.92,-47.72 -427.33,607.15 -180.14,880.99z"/>
  <path class="fil1" d="M15804.38 20262.8c541.28,178.37 834.57,-451.67 632.29,-689.64 -239.66,-281.95 -818.72,69.91 -632.29,689.64z"/>
  <path class="fil1" d="M16910.67 6654.74c571.65,189.38 843.1,-462.99 631.96,-691.89 -284.3,-308.21 -771.56,130.78 -631.96,691.89z"/>
  <path class="fil1" d="M28413.93 16759.98c-619.29,242.09 -420.79,825.71 136.69,634.74 464.48,-159.12 473.84,-873.42 -136.69,-634.74z"/>
  <path class="fil1" d="M21838.12 4751.36c503.1,-234.93 316.78,-958.31 -37.86,-933.04 -351.34,25.06 -475.09,770.82 37.86,933.04z"/>
  <path class="fil1" d="M16293.52 10551.17c-429.85,192.05 -238.32,1070.54 194.54,861.07 308.15,-149.09 243.49,-1056.79 -194.54,-861.07z"/>
  <path class="fil1" d="M22332.4 3588.29c-303.77,451.03 159.75,920.96 485.32,780.03 295.65,-128 123.23,-899.82 -485.32,-780.03z"/>
  <path class="fil1" d="M28149.1 16188.06c-436.78,-250.51 -768.18,244.54 -635.48,586.38 159.62,411.14 800.62,117.37 635.48,-586.38z"/>
  <path class="fil1" d="M10641.1 1444.4c123.8,-628.31 -588.72,-801.58 -770.42,-539.6 -236.75,341.36 302.89,708.56 770.42,539.6z"/>
  <path class="fil1" d="M14189.23 13658.13c571.83,137.17 768.93,-512.12 568.99,-744.93 -240.54,-280.06 -759.46,114.45 -568.99,744.93z"/>
  <path class="fil1" d="M14712.86 14114.47c547.1,164.43 994.76,-295.46 745.32,-565.07 -216.71,-234.21 -908.99,-45.4 -745.32,565.07z"/>
  <path class="fil1" d="M23094.35 6394.6c-576.62,213.71 -522.77,928.95 -53.14,798.82 394.13,-109.22 544.21,-980.82 53.14,-798.82z"/>
  <path class="fil1" d="M15283.35 11054.58c497.24,159.54 902.47,-373.3 547.02,-763.61 -473.61,-50.48 -665.26,318.78 -547.02,763.61z"/>
  <path class="fil1" d="M16742.6 20642.3l291.58 0c151.13,-266.64 345.76,-704.1 -103.84,-905.91 -504.59,90.5 -374.95,640.21 -187.74,905.91z"/>
  <path class="fil1" d="M11530.86 359.71c-322.26,235.98 -39.72,1007.84 363.48,719.57 290.4,-207.65 60.17,-1029.8 -363.48,-719.57z"/>
  <path class="fil1" d="M17464.71 19374.99c-96.28,75.68 -115.12,31.4 -142.73,227.23 -47,333.2 233.21,656.22 492.99,487.37 292.22,-189.93 62.1,-1038.83 -350.26,-714.6z"/>
  <path class="fil1" d="M15408.97 14514.1c-431.46,-312.11 -921.61,20.33 -761.71,361.36 116.32,248.06 856.5,249.61 761.71,-361.36z"/>
  <path class="fil1" d="M13570.69 12979.84c-397.95,181.22 -289.99,944.9 133.95,790.82 384.77,-139.84 277.47,-978.16 -133.95,-790.82z"/>
  <path class="fil1" d="M28003.07 18148.92c448.97,314.17 951.53,-16.23 763.81,-365.12 -130.12,-241.87 -821.18,-225.74 -763.81,365.12z"/>
  <path class="fil1" d="M26870.79 17047.8c522.05,2.82 510.15,-469.93 306.79,-802.08l-308.96 -23.61c-212,259.28 -282.06,494.87 2.17,825.69z"/>
  <path class="fil1" d="M24759.19 6922.65c241.59,-414 -24,-931.5 -377.64,-769.54 -249.53,114.26 -262.59,855.44 377.64,769.54z"/>
  <path class="fil1" d="M16147.23 18775.45c-598.64,-115.44 -871.25,392.79 -610.87,598.99 289.83,229.53 801.36,-92.4 610.87,-598.99z"/>
  <path class="fil1" d="M12008.05 8926.42c-33.41,627.74 702.48,559.14 792.7,287.6 136.29,-410.28 -410.33,-551.33 -792.7,-287.6z"/>
  <path class="fil1" d="M17285.18 10910.7c227.14,-299.73 220.84,-902.96 -348.76,-789.2 -250.62,339.11 -154.98,828.06 348.76,789.2z"/>
  <path class="fil1" d="M20903.39 4204.04c526.61,20.48 667.52,-549.43 253.12,-829.11 -477.66,59.76 -470.22,541.09 -253.12,829.11z"/>
  <path class="fil1" d="M22681.62 5643.39c-578.35,280.25 -309.66,826.75 103.95,653.95 391.08,-163.38 427.79,-911.59 -103.95,-653.95z"/>
  <path class="fil1" d="M20060.53 10211.54c-160.76,84.7 -225.72,259.55 -190.47,530.02 25.57,196.2 138.74,414.94 366.04,300.4 299.65,-150.98 235.67,-1047.15 -175.57,-830.42z"/>
  <path class="fil1" d="M10711.23 2211.8c42.55,-542.01 -618.2,-613.51 -760.21,-348.67 -173.14,322.92 321.24,709.55 760.21,348.67z"/>
  <path class="fil1" d="M13688.34 7980.3c436.89,-305.22 125.57,-844.92 -167.72,-821.01 -353,28.8 -389.8,756.55 167.72,821.01z"/>
  <path class="fil1" d="M15029.01 10200.78c475.78,106.18 757.38,-178.16 597.89,-635.9 -499.05,-96.91 -848.6,212.9 -597.89,635.9z"/>
  <path class="fil1" d="M15913.56 6874.84c211.74,-326.63 201.06,-813.39 -336.76,-819.41 -251.15,377.42 -221.46,844.29 336.76,819.41z"/>
  <path class="fil1" d="M23163.32 3430.6c340.2,-309.59 -181.7,-649.25 -523.67,-588.59 -118.29,155.55 -236.4,264.25 -40.54,491.18 125.9,145.87 375.21,290.02 564.21,97.41z"/>
  <path class="fil1" d="M17206.69 7395.87c438.78,122.7 810.24,-149.1 655.79,-596.5 -437.18,-139.18 -820.4,143.61 -655.79,596.5z"/>
  <path class="fil1" d="M19477.62 11072.79c410.27,-195.42 370.14,-745.61 0,-898.88 -381.27,140.75 -399.78,732.41 0,898.88z"/>
  <path class="fil1" d="M15779.04 969.54c443.52,371.25 828.01,0.24 472.73,-472.27 -378.07,-53.76 -520.6,98.68 -472.73,472.27z"/>
  <path class="fil1" d="M16581.1 2855.42c-355.72,183.71 77.5,789.81 369.85,616.99 311.69,-184.25 -80,-766.7 -369.85,-616.99z"/>
  <path class="fil1" d="M17251.7 3283.39c253.01,4.04 360.64,-41.21 386.39,-300.62 25.84,-260.41 -63.85,-353.2 -193.03,-438.89 -440.79,58.05 -353.35,494.68 -193.36,739.51z"/>
  <path class="fil1" d="M21098.61 18395.37c323.05,-196.62 302.92,-554.37 57.42,-745.94 -229.64,7.72 -324.95,77.87 -339.9,334.51 -14.09,242.02 85.8,351.38 282.48,411.43z"/>
  <path class="fil1" d="M21445.97 18560.04c351.89,110.02 633.27,-139.73 509.1,-571.22 -376.04,-181.83 -620.08,219.44 -509.1,571.22z"/>
  <path class="fil1" d="M11154.42 12474.97c88.84,-108.86 188.7,-203.84 140.17,-377.62 -44.64,-159.71 -233.91,-267.75 -425.38,-191.59 -206.76,82.28 -337.41,627.76 285.21,569.21z"/>
  <path class="fil1" d="M10181.01 11511.63c-106.56,80.08 -260.11,167.3 -112.81,416.41 70.17,118.68 281.45,162.75 418.07,74 313.4,-203.58 48.75,-756.48 -305.26,-490.41z"/>
  <path class="fil1" d="M11548.19 11822.01l-8.84 323.68c345.86,252.26 623.33,180.45 579.09,-314.56 -254.08,-213.43 -303.68,-207.93 -570.25,-9.12z"/>
  <path class="fil1" d="M10146.35 11242.6l102.89 -108.33c83.52,-366.41 -56.54,-524.41 -431.27,-429.84 -214.72,272.04 -155.66,646.26 328.38,538.17z"/>
  <path class="fil1" d="M16260.22 3588.53c-186.84,487.48 359.15,610.23 510.65,453.44 181.98,-188.35 -57.22,-621.59 -510.65,-453.44z"/>
  <path class="fil1" d="M17868.8 3675.05c421.42,-99.03 497,-429.76 219.4,-691.78 -504.85,19.04 -370.05,416.17 -219.4,691.78z"/>
  <path class="fil1" d="M21654.82 19161.21c407.07,113.83 779.35,-234.95 528.42,-471.46 -194.96,-183.73 -602.77,15.12 -528.42,471.46z"/>
  <path class="fil1" d="M20519.69 18753.73c324.67,-214.67 267.91,-699.42 -173.69,-660.36 -223.2,264.86 -187.38,557.63 173.69,660.36z"/>
  <path class="fil1" d="M11700.56 4916.32c-444.02,-121.17 -672.74,382.54 -412.47,529.45 224.15,126.49 560.26,-182.53 412.47,-529.45z"/>
  <path class="fil1" d="M27852.62 6151.79c110.19,-441.22 -402.32,-663.51 -539.34,-421.11 -131.83,233.16 199.45,558.39 539.34,421.11z"/>
  <path class="fil1" d="M28219.43 5937.08c254.19,-233.73 184.5,-677.1 -231.59,-631.68 -227.97,276.05 -113.27,616.32 231.59,631.68z"/>
  <path class="fil1" d="M11357.41 6007.38c317.53,73.74 607.91,-9.19 514.26,-398.93 -340.7,-186.64 -582.53,73.91 -514.26,398.93z"/>
  <path class="fil1" d="M19012.59 6221.86c357.23,42.33 531.42,-252.66 349.24,-508.16 -320.38,-5.06 -450.35,221.19 -349.24,508.16z"/>
  <path class="fil1" d="M28792.97 13463.61c-296.42,-259.6 -530.09,-44.84 -434.53,205.28 92.33,241.69 486.58,218.52 434.53,-205.28z"/>
  <path class="fil1" d="M27566.68 13448.38c86.7,-302.81 22.89,-395.02 -273.55,-394.71 -304.78,239.13 -115.59,592.05 273.55,394.71z"/>
  <path class="fil0" d="M770.07 14375.54c-191.18,96.38 -92.75,245.09 -191.82,393.61 -58.79,88.16 -266.44,118.2 -231.96,340 62.61,402.81 665.07,274.57 774.62,332.21l706.03 474.6c87.54,69.07 214.92,712.38 626.51,573.54 206.75,-69.74 96.59,-237.4 212.88,-371.35 35.64,-41.07 98.49,-51.77 166.01,-118 57.97,-56.87 104.82,-128.16 86.64,-239.55 -22.84,-139.94 -190.19,-230.98 -320.41,-263.13 -451.01,-111.34 -275.8,186.38 -922.97,-257.35 -124.22,-85.17 -259.06,-160.03 -312.86,-293.83 -92.74,-230.64 -267.61,-734.63 -592.67,-570.75z"/>
  <path class="fil1" d="M7541.74 3036.52c-489.25,218.13 -699.92,1029.62 -633.14,1729.7 106.32,1114.36 1060.97,155.26 1273.59,-84.16 409.19,-460.76 1462.75,-472.93 1158.25,-1134.05 -169.51,-368.1 -1244.9,-758.39 -1798.7,-511.49z"/>
  <path class="fil1" d="M4773.65 12129.21c-1430.58,385.95 -806.96,2453.48 534.16,2069.72 1287.19,-368.34 798.66,-2429.31 -534.16,-2069.72z"/>
  <path class="fil0" d="M723.4 7846.54c-209.59,119.77 -396.78,112.05 -427.94,357.11 -69.89,549.74 617.21,312.26 1009.9,537.99 189.03,108.63 307.14,185.06 505.32,303.79 162.42,97.3 328.01,180.6 481.9,272.04 348.54,207.14 174.06,183.27 333.42,476.08 206.53,379.5 753.57,282.66 634.25,-433.37 177.87,-105.09 313.18,-112.01 352.22,-321.73 42.82,-229.95 -119.38,-353.11 -316.66,-391.47 -624.21,-121.31 8.55,274.95 -1109.9,-380.86 -434.59,-254.82 -534.09,-208.02 -776.96,-669.85 -177.26,-337.03 -749.39,-458.99 -685.55,250.27z"/>
  <path class="fil0" d="M471.79 2436.14c467.68,159.25 436.5,-926.75 1410.5,-858.4 336.67,23.61 368.53,30.26 601.93,-116.86 21.1,-298.54 -71.41,-249.77 -180.1,-463.94 -0.06,-0.15 -234.51,-770.75 -664.49,-45.12 -124.31,209.79 -522.84,479.76 -795.39,538.86 -186.97,40.52 -1010.6,-124.26 -635.68,495.97 55.36,91.61 20.57,8.36 69.85,116.01 168.02,367.18 -48.29,189.03 193.38,333.48z"/>
  <path class="fil0" d="M8336.56 10808.55l427.13 -646.29c-51.51,-392.63 -601.89,-104.92 -1154.62,-489.86 -299.53,-208.59 -180.21,-130.94 -339.64,-469.56 -99.2,-210.69 -214.51,-332.9 -505.59,-313.99 -39.21,83.08 -101.03,278.47 -153.8,356.44 -77.48,114.5 -203.69,109.46 -174.57,328.23 44.84,336.79 432.67,191.65 689.75,297.2 878.27,360.6 664.56,953.13 1211.34,937.83z"/>
  <path class="fil1" d="M8265.31 18713.99c429.87,-779.46 1.93,-1727.75 -1111.65,-1224.01 -556.55,251.78 -2.1,573.04 266.53,708.41 453.94,228.74 280.64,594.15 845.12,515.6z"/>
  <path class="fil1" d="M2633.33 2366.47c-207.28,57.44 -275.92,162.6 -435.41,267.3 -196.29,128.87 -1009.64,140.73 -727.38,609.72 47.72,79.28 940.5,876.98 1350.9,14.42 133.18,-279.94 359.23,-1043.16 -188.11,-891.44z"/>
  <path class="fil1" d="M3603.39 5297.63c-78.58,446.13 358.23,1694.16 1369.25,748.5 786.81,-735.96 -352.44,-514.92 -848.3,-764.03 -222.81,-111.94 -335.16,-96.17 -520.95,15.53z"/>
  <path class="fil1" d="M7217.16 928.97c-649.05,287.03 -232.37,1727.81 434.46,1487.1 673.76,-243.22 225.68,-1779.03 -434.46,-1487.1z"/>
  <path class="fil1" d="M5809.4 1828.97c-690.67,469.5 406.04,1563.77 962.79,1154.73 556.52,-408.82 -370.04,-1557.64 -962.79,-1154.73z"/>
  <path class="fil1" d="M8623.68 1575.88c-646.1,377.57 -287.39,1626.81 372.47,1324.52 619.42,-283.75 289.31,-1711.29 -372.47,-1324.52z"/>
  <path class="fil1" d="M5625.19 3323.42c-724.06,390.51 95.26,1283.44 774,1027.98 755.39,-284.29 -96.58,-1393.32 -774,-1027.98z"/>
  <path class="fil1" d="M3254.63 20814.52l1944.71 0c-190.8,-217.1 -601.5,-293.6 -740.9,-525.43 -192.64,-320.35 -119.14,-569.46 -716.48,-411.64 -89.95,252.92 -51.66,226.8 -61.42,502.08 -325.15,60.76 -415.95,106.73 -425.91,434.99z"/>
  <path class="fil1" d="M289.98 12318.02c348.12,241.24 280.29,51.25 621.54,10 403.48,-48.75 333.88,220.95 728.76,39.94 126.74,-406.9 -339.7,-930.46 -624.41,-951.64 -434.74,-32.32 -752.47,631.5 -725.89,901.7z"/>
  <path class="fil1" d="M7984.98 13911.7c-615.46,368.53 -158.18,1256.78 495.18,974.63 590.28,-254.91 192.86,-1386.62 -495.18,-974.63z"/>
  <path class="fil1" d="M3584.44 15756.77c-664.52,366.54 -152.55,1290.19 491.29,975.4 569.77,-278.61 163.88,-1336.79 -491.29,-975.4z"/>
  <path class="fil1" d="M868.87 19439.84c253.62,183.73 335.76,77.41 580.99,215.41 221.42,124.59 254.98,280.82 620.24,221.28 105.72,-360.66 -63.42,-1381.55 -911.8,-916.3 -232.54,127.55 -319.72,178.24 -289.43,479.61z"/>
  <path class="fil1" d="M9545.16 6746.6c-144.35,-379.61 -1073.97,-747.87 -1160.36,179.64 -48.53,521.09 220.04,426.41 475.36,230.33 272.94,-209.57 551.16,-117.28 685,-409.97z"/>
  <path class="fil1" d="M5453.16 10844.33c-619.03,287.58 -234.23,1109.35 362.96,859.49 514.76,-215.39 204.65,-1123.2 -362.96,-859.49z"/>
  <path class="fil1" d="M6484.68 11649.67c-606.4,170.95 -374.42,1062.83 252.31,904.29 547.83,-138.6 372.56,-1080.45 -252.31,-904.29z"/>
  <path class="fil1" d="M4206.02 10715.19c-601.04,205.11 -218.65,1157.29 382.02,857.17 470.19,-234.93 238.22,-1068.82 -382.02,-857.17z"/>
  <path class="fil1" d="M3183.63 11591.07c-554.99,292.33 -186.73,1064.59 374.13,860.51 551.14,-200.54 220.3,-1173.6 -374.13,-860.51z"/>
  <path class="fil1" d="M4051.09 1169.22c-625,203.47 -266.62,1076.84 313.53,858.56 497.26,-187.1 241.03,-1039.12 -313.53,-858.56z"/>
  <path class="fil1" d="M546.06 4941.65c-159.71,567.39 297.4,1103.64 847.55,669.22 294.8,-232.78 162.97,-350.06 -153.36,-446.1 -297.03,-90.17 -397.75,-298.01 -694.19,-223.12z"/>
  <path class="fil1" d="M5196.52 19490.71c356.24,-15.86 138.97,-46.19 396.09,-203.14 134.56,-82.14 279.76,-74.11 430.35,-144.22 20.45,-416.78 -494.6,-492.75 -620.19,-457.28 -290.29,81.96 -276.38,569.29 -206.25,804.64z"/>
  <path class="fil1" d="M4213.05 7614.98l310.11 10.37c171.42,-265.09 288.81,-843.55 -129.97,-891.36 -417.92,-47.72 -427.33,607.15 -180.14,880.99z"/>
  <path class="fil1" d="M8936.31 16932.2c-619.29,242.09 -420.79,825.71 136.69,634.74 464.48,-159.12 473.84,-873.42 -136.69,-634.74z"/>
  <path class="fil1" d="M2360.5 4923.58c503.1,-234.93 316.78,-958.31 -37.86,-933.04 -351.34,25.06 -475.09,770.82 37.86,933.04z"/>
  <path class="fil1" d="M2854.78 3760.51c-303.77,451.03 159.75,920.96 485.32,780.03 295.65,-128 123.23,-899.82 -485.32,-780.03z"/>
  <path class="fil1" d="M8671.48 16360.28c-436.78,-250.51 -768.18,244.54 -635.48,586.38 159.62,411.14 800.62,117.37 635.48,-586.38z"/>
  <path class="fil1" d="M3616.73 6566.82c-576.62,213.71 -522.77,928.95 -53.14,798.82 394.13,-109.22 544.21,-980.82 53.14,-798.82z"/>
  <path class="fil1" d="M8525.45 18321.14c448.97,314.17 951.53,-16.23 763.81,-365.12 -130.12,-241.87 -821.18,-225.74 -763.81,365.12z"/>
  <path class="fil1" d="M7393.17 17220.02c522.05,2.82 510.15,-469.93 306.79,-802.08l-308.96 -23.61c-212,259.28 -282.06,494.87 2.17,825.69z"/>
  <path class="fil1" d="M5281.57 7094.87c241.59,-414 -24,-931.5 -377.64,-769.54 -249.53,114.26 -262.59,855.44 377.64,769.54z"/>
  <path class="fil1" d="M1425.77 4376.26c526.61,20.48 667.52,-549.43 253.12,-829.11 -477.66,59.76 -470.22,541.09 -253.12,829.11z"/>
  <path class="fil1" d="M3204 5815.61c-578.35,280.25 -309.66,826.75 103.95,653.95 391.08,-163.38 427.79,-911.59 -103.95,-653.95z"/>
  <path class="fil1" d="M1198.23 10355.06c-160.76,84.7 -225.72,259.55 -190.47,530.02 25.57,196.2 138.74,414.94 366.04,300.4 299.65,-150.98 235.67,-1047.15 -175.57,-830.42z"/>
  <path class="fil1" d="M3685.7 3602.82c340.2,-309.59 -181.7,-649.25 -523.67,-588.59 -118.29,155.55 -236.4,264.25 -40.54,491.18 125.9,145.87 375.21,290.02 564.21,97.41z"/>
  <path class="fil1" d="M615.32 11216.31c410.27,-195.42 370.14,-745.61 0,-898.88 -381.27,140.75 -399.78,732.41 0,898.88z"/>
  <path class="fil1" d="M1620.99 18567.59c323.05,-196.62 302.92,-554.37 57.42,-745.94 -229.64,7.72 -324.95,77.87 -339.9,334.51 -14.09,242.02 85.8,351.38 282.48,411.43z"/>
  <path class="fil1" d="M1968.35 18732.26c351.89,110.02 633.27,-139.73 509.1,-571.22 -376.04,-181.83 -620.08,219.44 -509.1,571.22z"/>
  <path class="fil1" d="M2177.2 19333.43c407.07,113.83 779.35,-234.95 528.42,-471.46 -194.96,-183.73 -602.77,15.12 -528.42,471.46z"/>
  <path class="fil1" d="M1042.07 18925.95c324.67,-214.67 267.91,-699.42 -173.69,-660.36 -223.2,264.86 -187.38,557.63 173.69,660.36z"/>
  <path class="fil1" d="M8375 6324.01c110.19,-441.22 -402.32,-663.51 -539.34,-421.11 -131.83,233.16 199.45,558.39 539.34,421.11z"/>
  <path class="fil1" d="M8741.81 6109.3c254.19,-233.73 184.5,-677.1 -231.59,-631.68 -227.97,276.05 -113.27,616.32 231.59,631.68z"/>
  <path class="fil1" d="M226.84 6354.78c357.23,42.33 531.42,-252.66 349.24,-508.16 -320.38,-5.06 -450.35,221.19 -349.24,508.16z"/>
  <path class="fil1" d="M9315.35 13635.83c-296.42,-259.6 -530.09,-44.84 -434.53,205.28 92.33,241.69 486.58,218.52 434.53,-205.28z"/>
  <path class="fil1" d="M8089.06 13620.6c86.7,-302.81 22.89,-395.02 -273.55,-394.71 -304.78,239.13 -115.59,592.05 273.55,394.71z"/>
  <path class="fil0" d="M27247.54 20690.38c467.68,159.25 436.5,-926.75 1410.5,-858.4 336.67,23.61 368.53,30.26 601.93,-116.86 21.1,-298.54 -71.41,-249.77 -180.1,-463.94 -0.06,-0.15 -234.51,-770.75 -664.49,-45.12 -124.31,209.79 -522.84,479.76 -795.39,538.86 -186.97,40.52 -1010.6,-124.26 -635.68,495.97 55.36,91.61 20.57,8.36 69.85,116.01 168.02,367.18 -48.29,189.03 193.38,333.48z"/>
 </g>
</svg>
