<?xml version="1.0" encoding="UTF-8"?>
<!DOCTYPE svg PUBLIC "-//W3C//DTD SVG 1.1//EN" "http://www.w3.org/Graphics/SVG/1.1/DTD/svg11.dtd">
<!-- Creator: CorelDRAW 2018 (64 Bit) -->
<svg xmlns="http://www.w3.org/2000/svg" xml:space="preserve" width="297mm" height="210mm" version="1.1" style="shape-rendering:geometricPrecision; text-rendering:geometricPrecision; image-rendering:optimizeQuality; fill-rule:evenodd; clip-rule:evenodd"
viewBox="0 0 29700 21000"
 xmlns:xlink="http://www.w3.org/1999/xlink">
 <defs>
  <style type="text/css">
   <![CDATA[
    .fil1 {fill:#347860}
    .fil0 {fill:#CFFCEE}
    .fil2 {fill:#347860;fill-rule:nonzero}
   ]]>
  </style>
 </defs>
 <g id="Camada_x0020_1">
  <metadata id="CorelCorpID_0Corel-Layer"/>
  <path class="fil0" d="M18818.55 10878.19c107.91,-133.65 228.15,-315.3 253.14,-487.25 -184.58,-138.99 -570.2,-263.06 -707.75,-441.88 -160.97,-209.31 70.49,-486.49 -60.16,-734.01 -106.65,-202.13 -443.29,-194.64 -565.8,-27.23 -194.39,265.7 108.7,567.45 -93.55,648.94 -74.94,30.21 -423.15,13.17 -518.37,323.42 -81.3,264.94 125.34,493.3 406.36,386.37 196.6,-74.8 329.06,-303.4 625.59,-150.11 191.7,99.11 491.91,407.66 660.54,481.75z"/>
  <path class="fil0" d="M12590.13 2441.12c-28.62,-107.67 71.76,-228.79 -7.75,-319.3l-156.28 -203.47c-214.57,49.25 -578.33,337.72 -845.47,307.74 -189.37,-21.28 -285.73,-278.63 -501.87,-365.77 -245.05,-98.83 -473.16,135.56 -444.26,369.91 37.92,307.65 402.5,307.9 462.02,409.4 90.25,153.79 -223.55,278.85 -80.39,630.67 92.48,227.32 379.83,311.22 541.27,97.21 149.92,-198.73 5.41,-459.35 218.48,-647.84 149.23,-132.04 604.04,-222.15 814.25,-278.55z"/>
  <path class="fil0" d="M11290.42 18901.42c51.79,-90.32 92.47,-279.6 91.02,-371.16 -2.98,-185.68 -199.04,-191.78 -493.02,-232.57 -358.73,-13.5 -508.3,-61.07 -567.87,-377.48 -47.91,-254.47 -171.95,-517.64 -492.14,-405.23 -270.63,95 -275.14,403.64 -100.98,613.8 252.4,304.53 -129.97,240.51 -265.3,508.39 -126.76,250.89 -9.84,567.9 299.09,524.56 269.04,-37.76 259.62,-344.47 509.29,-436.86 253.82,-93.91 782.69,192.77 1019.91,176.55z"/>
  <path class="fil0" d="M22368.92 3084.9l136.81 -74.35c425.28,-87.68 249.47,-160.63 82.57,-416.74 -206.39,-74.49 -665.57,-200.54 -785.81,-335.42 -145.65,-163.38 4.57,-487.31 -164.91,-699.23 -146.73,-183.5 -466.1,-101.46 -553.78,72.9 -157.31,312.81 202.73,523.19 30.78,652.62 -82.34,61.95 -389.88,57.7 -460.65,378.4 -61.19,277.13 164.32,480.39 412.94,370.02 180.88,-80.3 271.09,-339.36 581.8,-291.99 235.4,35.88 515.34,291.51 720.25,343.79z"/>
  <path class="fil0" d="M6263.72 13788.44c64.31,156.86 -51.96,425.14 222.5,616.46 213.99,149.15 499.17,17.79 493.67,-248.16 -4.82,-234.81 -261.47,-409.12 -71.4,-691.95 108.67,-161.71 529.64,-520.61 658.22,-662.92 -23.06,-31.34 -40.87,-47.68 -68.42,-80.56 -40.53,-42.86 -55.31,-47.57 -101.97,-90.77 -86.94,-80.41 -194.3,-91.87 -284.84,-138.87 -159.67,143.92 -378.96,546.23 -565.21,659.32 -252.9,153.57 -354,-46.83 -653.54,-47.51 -244.93,-0.57 -403.92,271.14 -281.8,496.42 38.03,70.2 144.57,151.47 238.12,173.9 170.14,40.79 254.01,-40.25 414.67,14.64z"/>
  <path class="fil0" d="M12368.94 1944.59l34.49 33.64c45.27,43.91 86.09,80.13 108.95,154.76 25.79,84.11 22.21,214.5 43.01,313.89 245.24,-31.79 350.62,-230.12 624.83,-233.41 239.57,-2.87 234.75,198.58 523.5,336.15 352.33,167.87 644.89,-349.88 311.6,-599.47 -91.14,-68.25 -237.59,-85.38 -299.34,-134.25 -171.53,-135.7 185.39,-310.43 33.72,-658.33 -97.15,-222.9 -366.53,-297.92 -527.87,-107.65 -146.85,173.17 -23.63,493.59 -198.67,666.05 -167.95,165.45 -431.47,111.42 -654.22,228.62z"/>
  <path class="fil0" d="M11230.88 18355.3c-43.37,212.66 -32.59,317.35 -63.8,540.42 232.49,39.77 526.01,2.78 698.47,144.26 128.1,105.1 125.8,453.79 271.74,594.2 170.45,163.98 477.5,16.91 537.69,-163.67 109.52,-328.55 -257.56,-441.28 -194.95,-621.82 43.42,-125.32 345.63,-120.41 370.76,-470.27 19.6,-272.36 -219.58,-470.81 -460.23,-318.82 -172.23,108.8 -195.15,362.13 -432.28,429.9 -257.39,73.52 -492.31,-121.43 -727.4,-134.2z"/>
  <path class="fil0" d="M22544.16 2585.44c50.12,98.8 28.14,191.89 -33.95,279.94 -72.73,103.11 -118.2,83.48 -141.29,219.52 188.57,124.97 397.09,78.26 595.67,245.02 186.3,156.46 39.97,446.69 187.13,678.44 133.45,210.18 480.05,136.4 576.29,-69.19 147.5,-315.16 -244.87,-527.25 -33.81,-658.38 75,-46.61 394.96,-73.38 434.16,-412.32 33.13,-286.15 -237.81,-437.96 -456.23,-306.74 -155.72,93.55 -271.17,336.55 -546.79,294.4 -238.87,-36.5 -407.53,-253.98 -581.18,-270.69z"/>
  <path class="fil0" d="M7041.9 12571.17c5.92,2.7 15.37,-1.33 18.49,6.19 7.77,18.69 22.72,7.29 37.36,12.17 41.89,13.98 36.62,8.14 72.73,26.06 111.44,55.34 188.71,221.22 263.88,318.18 178.7,-125.66 186.24,-299.2 382.02,-458.39 237.99,-193.47 402.53,45.28 721.9,11.97 230.81,-24.05 341.06,-346.96 201.7,-528.41 -205.31,-267.34 -546.4,-46.92 -647.78,-168.38 -78.48,-94.03 66.1,-417.11 -251.03,-589.23 -262.72,-142.56 -490.55,35.51 -470.35,283.4 17.5,214.81 254.83,375.1 107.19,651.52 -106.45,199.21 -341.94,291.71 -436.11,434.92z"/>
  <path class="fil0" d="M18758.62 10818c68.36,119.11 373.37,178.34 519.71,329.44 201.5,208.08 -9.79,404 85.49,706.43 63,200.01 386.53,269.79 556.87,94.4 229.41,-236.19 -26.81,-486.04 45.3,-649.93 162.95,-149.51 389.68,-2.38 542.25,-324.87 123.53,-261.07 -70.06,-511.22 -345.03,-445.62 -202.19,48.25 -329.41,317.81 -636.8,205.26 -213.45,-78.15 -363.27,-329.52 -508.82,-364.1 67.68,239.12 -179.83,304.42 -258.97,448.99z"/>
  <path class="fil0" d="M19421.46 5749.73c-196.77,82.94 -206.93,190.92 -374.57,304.95 -146.87,99.93 -279.51,154.17 -373.85,322.17 -119.62,212.97 -54.94,389.46 138.42,456.83 251.86,87.73 349.58,-42.55 590.51,106.99 632.69,392.72 702.75,-272.9 609.34,-440.99 -194.89,-350.68 -69.09,-13.31 -205.11,-490.81 -48.05,-168.69 -174.61,-347.73 -384.74,-259.14z"/>
  <path class="fil0" d="M16592.65 13100.44c-199.1,85.83 -152.47,255.23 -186.45,497.61 -28.93,206.64 -144.01,317.07 -102.17,573.75 30.55,187.49 162.45,334.17 372.27,272.13 256.36,-75.82 225.93,-205.59 421.25,-277.01 175.32,-64.11 372.01,-39.12 499.51,-172.21 131.81,-137.6 37.73,-390.22 -67.79,-498.35 -120.84,-123.84 -292.93,-108.21 -462.98,-232.7 -109.91,-80.45 -273.58,-249.45 -473.64,-163.22z"/>
  <path class="fil0" d="M5881.07 5311.9c-161.51,63.17 -172.43,237.16 -89.23,404.29 86.14,173.03 163.83,175.8 260.3,314.68 56.82,81.75 303.51,620.46 597.63,33.56 119.48,-238.41 174.56,-190.76 250.55,-303.43 80.79,-119.78 61.67,-332.81 -35.99,-421.53 -140.33,-127.53 -339.9,-14.55 -483.86,3.71 -185.85,23.6 -290.68,-112.86 -499.4,-31.28z"/>
  <path class="fil0" d="M22600.44 8349.49c-145.35,61.01 -178.76,128.86 -114.74,382.11 44.14,174.61 -13.05,312.27 49.53,481.87 44.5,120.69 163.29,231.77 315.53,165.73 135.47,-58.77 167.53,-183.77 252.51,-301.09 123.02,-169.91 569.03,-268.65 366.7,-585.52 -101.49,-158.93 -189.99,-120.86 -405.31,-120.81 -205.59,0.09 -248.28,-112.89 -464.22,-22.29z"/>
  <path class="fil0" d="M11325.02 12183.05c-188.57,91 -127.3,143.13 -254.49,280.42 -76.39,82.49 -209.22,183.55 -254.41,298.94 -68.9,175.9 7.03,313.07 170.25,335.79 214.95,29.93 287.57,-81.35 492.48,-35.2 145.4,32.73 336.15,93.6 445.3,-11.03 101.64,-97.47 99.2,-309.78 -1.84,-408.21 -148.49,-144.66 -137.71,-90.23 -252.42,-300.42 -52.68,-96.55 -186.16,-236.87 -344.87,-160.29z"/>
  <path class="fil0" d="M14212.12 4739.56c-194.64,76.7 -150.42,145.23 -272.84,291.45 -97.89,116.89 -190.84,133.29 -255.32,295.88 -199.12,502.23 548.36,281.24 627.72,293.61 126.17,19.68 322.83,101.83 452.91,17.72 98.26,-63.51 141.86,-288.41 38.07,-414.41 -97.01,-117.72 -102.26,-21.3 -257.3,-295.63 -54.1,-95.7 -173.2,-251.68 -333.24,-188.62z"/>
  <path class="fil0" d="M12620.01 15471.72c-184.55,82.91 -142.37,143.44 -253.5,281.47 -99.14,123.13 -191.47,139.16 -256.88,294.86 -78.91,187.83 -4.25,322.05 173.12,343.41 215.49,25.96 281.8,-83.25 489.98,-34.21 739.39,174.2 480.25,-381.25 443.09,-420.11 -140.46,-146.91 -96.78,-26.64 -256.62,-296.14 -57.1,-96.3 -178.3,-241.58 -339.19,-169.28z"/>
  <path class="fil0" d="M7723.6 16604.94c-160.27,88.1 -141.97,168.49 -248,285.07 -82.34,90.54 -198.02,136.92 -251.09,302.4 -61.04,190.42 39.74,309.07 208.6,320.45 196.8,13.24 282.83,-83.11 491.31,-30.21 637.91,161.88 497.47,-342.6 407.7,-432.46 -152.55,-152.69 -79.74,-1.31 -250.78,-302.77 -56.67,-99.9 -188.97,-235.29 -357.74,-142.48z"/>
  <path class="fil0" d="M20087.9 18947.74c138.65,-12 154.53,-56.84 208.99,-162.56 45.59,-88.44 314.01,-312.02 146.68,-469.45 -90.97,-85.55 -215.55,-15.2 -311.93,-4.19 -114.88,13.07 -570.57,-143.87 -387.61,245.75 38.23,81.44 111.47,124.27 162.9,198.9 71.2,103.31 50.83,136.92 180.97,191.55z"/>
  <path class="fil0" d="M22724.48 14411.97c-236.23,121.23 93.41,410.78 127.64,462.97 57.73,87.91 187.1,368.41 377.34,21.28 44.34,-80.9 327.43,-316.11 145.58,-473.28 -92.08,-79.59 -212.26,-10.24 -312.59,-0.59 -130.08,12.51 -215.18,-73.41 -337.97,-10.38z"/>
  <path class="fil0" d="M15572.92 7802.32c106.14,-43.79 127.44,-90.99 181.73,-188.71 67,-120.53 128.27,-131.11 161.29,-198.73 49.13,-100.64 16.34,-232.11 -63.43,-268.39 -120.15,-54.69 -213.53,25.76 -325.54,20.11 -99,-4.96 -214.25,-77.83 -316.16,-1.08 -83.06,62.58 -50.98,199.21 -3.24,271.94 47.66,72.64 114.51,112.13 165.17,195.24 59.97,98.4 68.62,147.02 200.18,169.62z"/>
  <path class="fil0" d="M16963.18 4037.23c-110.32,252.62 78.25,320.67 167.75,469.59 132.18,220 250.6,251.17 379.75,2.89 65.61,-126.14 126.57,-126.62 164.75,-197.73 45.49,-84.76 31.99,-235.24 -48.08,-280.9 -108.84,-62.07 -215.61,12.59 -321.04,14.32 -157.4,2.61 -128.01,-62.52 -343.13,-8.17z"/>
  <path class="fil0" d="M15955.11 17873.52c233.82,45.89 212.63,-125.72 325.52,-248.51 126.85,-138 194.81,-193.9 67.62,-397 -189.05,-26.89 -253.19,40.17 -383.04,20.99 -135.84,-20.05 -293.95,-71.39 -326.03,79.03 -33.42,156.6 74.8,234.95 136.32,300.36 80.3,85.38 97.92,167.78 179.61,245.13z"/>
  <path class="fil0" d="M17067.94 12619.2c-167.61,184.34 109.91,835.32 435.91,610.08 250.35,-172.97 -302.74,-756.56 -435.91,-610.08z"/>
  <path class="fil0" d="M15839.32 13219.6c-108.24,138.09 42.61,943.21 372.67,615.42 247.71,-246.02 -225.11,-803.65 -372.67,-615.42z"/>
  <path class="fil0" d="M18905.04 5356.19c-168.6,71.68 -522.83,702.01 -115.22,701.44 388.92,-0.54 372.01,-810.62 115.22,-701.44z"/>
  <path class="fil0" d="M20202.84 5692.32c-94.35,49.72 -197.23,209.25 -221.37,357.77 -29.81,183.24 45.93,350.39 209,364.32 340.15,29.07 255.43,-850.13 12.37,-722.09z"/>
  <path class="fil0" d="M19885.12 5085.9c-157.94,55.79 -354.23,766.74 28.67,703.34 312.19,-51.68 195.3,-782.48 -28.67,-703.34z"/>
  <path class="fil0" d="M16444.95 12382.72c-157.37,116.78 147.1,782.71 419.66,568.49 241.65,-189.9 -236.22,-704.59 -419.66,-568.49z"/>
  <path class="fil0" d="M16084.8 12575.26c-229.76,143.7 -58.52,828.92 260.79,650.24 245.33,-137.26 -109.64,-744.75 -260.79,-650.24z"/>
  <path class="fil0" d="M19423.1 5032.74c-288.13,153.88 -413.85,680.25 -60.95,639.24 136.35,-15.83 194.58,-165.46 225.67,-324.16 32.14,-164.12 67.59,-439.12 -164.72,-315.08z"/>
  <path class="fil0" d="M22800.5 7864.05c-137.72,137.48 211.72,585.65 433.22,359.35 211.52,-216.11 -329.63,-462.72 -433.22,-359.35z"/>
  <path class="fil0" d="M12083.85 15297.61c-140.89,75.97 -289.24,638.31 65.81,528.48 277.27,-85.75 121.06,-629.23 -65.81,-528.48z"/>
  <path class="fil0" d="M22011.46 8681.02c-115.79,120.16 162.48,621.14 363.27,414.3 209.94,-216.22 -217.13,-565.94 -363.27,-414.3z"/>
  <path class="fil0" d="M14809.07 4572.54c-219.24,96.13 -178.19,616.26 136.07,532.98 213.98,-56.7 35.4,-608.18 -136.07,-532.98z"/>
  <path class="fil0" d="M13221.1 15306.52c-196.46,112.98 -176.89,591.67 137.97,528.3 231.88,-46.66 42.06,-631.83 -137.97,-528.3z"/>
  <path class="fil0" d="M8563.58 16923.03c85.24,-245.64 -112.21,-713.39 -287.57,-433.65 -144.86,231.09 -11.6,572.44 287.57,433.65z"/>
  <path class="fil0" d="M12023.32 11996.3c-139.84,2.04 -199.75,99.5 -214.73,242.89 -15.85,151.55 39.74,277.81 168.66,303.28 347.5,68.61 161.12,-434.98 46.07,-546.17z"/>
  <path class="fil0" d="M13673.98 4566.75c-159.84,78.41 -292.59,617.69 44.84,535.46 280.36,-68.34 137.23,-624.75 -44.84,-535.46z"/>
  <path class="fil0" d="M7191.38 16438.86c-115.08,94.68 -254.12,663.47 108.9,496.31 241.61,-111.28 90.76,-660.51 -108.9,-496.31z"/>
  <path class="fil0" d="M10790.65 12012.15c-131.02,76.7 -279.94,649.17 82.23,518.46 228.48,-82.46 125.37,-639.98 -82.23,-518.46z"/>
  <path class="fil0" d="M7938.92 16053.46c-140.35,112.05 -72.81,683.52 213.45,481.9 187.75,-132.24 -63.37,-601.71 -213.45,-481.9z"/>
  <path class="fil0" d="M22280.87 7887.96c-0.39,0.34 -104.98,0.85 -6.12,163.95 15.85,26.12 75.05,100.18 97.06,121.66 65.1,63.42 214.05,148.18 310.57,51.39 188.8,-189.33 -225.87,-482.46 -401.51,-337z"/>
  <path class="fil0" d="M22033.87 8151.44c-163.67,125.77 105.49,621.23 325.01,421.85 182.3,-165.6 -196.35,-520.7 -325.01,-421.85z"/>
  <path class="fil0" d="M11265.79 11643.86c-248.53,-17.82 -365.68,436.74 -172.43,510.37 291.37,111 305.27,-353.74 172.43,-510.37z"/>
  <path class="fil0" d="M14397.97 4194.23c-123.56,173.32 -113.74,623.5 177.6,512.65 179.92,-68.45 88.95,-520.7 -177.6,-512.65z"/>
  <path class="fil0" d="M12477.22 14942.74c-226.61,104.55 -272.9,541.21 -4.57,514.4 134.88,-13.44 164.21,-131.42 161.43,-267.17 -2.44,-119.05 -28.31,-306.57 -156.86,-247.23z"/>
  <path class="fil0" d="M11562.27 11623.8c-173.71,115.53 -153.94,609.03 128.38,521.73 208.12,-64.34 107.53,-476.74 -128.38,-521.73z"/>
  <path class="fil0" d="M12810.06 14927.82c-47.77,89.86 -80.82,219.12 -59.57,349.57 18.38,112.92 115.42,220.62 251.23,150.25 173.79,-90.09 80.5,-534.6 -191.66,-499.82z"/>
  <path class="fil0" d="M14028.51 4227.08c-195.18,119.42 -245.27,537.86 24.26,503.88 253.44,-31.99 185.68,-632.32 -24.26,-503.88z"/>
  <path class="fil0" d="M7694.52 16060.02c-269.21,-36.85 -366.53,420.74 -192.88,502.06 281.41,131.76 300.33,-310.34 192.88,-502.06z"/>
  <path class="fil0" d="M27340.35 6993.38l136.81 -74.35c425.28,-87.68 249.47,-160.63 82.57,-416.74 -206.39,-74.49 -665.57,-200.54 -785.81,-335.42 -145.65,-163.38 4.57,-487.31 -164.91,-699.23 -146.73,-183.5 -466.1,-101.46 -553.78,72.9 -157.31,312.81 202.73,523.19 30.78,652.62 -82.34,61.95 -389.88,57.7 -460.65,378.4 -61.19,277.13 164.32,480.39 412.94,370.02 180.88,-80.3 271.09,-339.36 581.8,-291.99 235.4,35.88 515.34,291.51 720.25,343.79z"/>
  <path class="fil0" d="M27515.59 6493.92c50.12,98.8 28.14,191.89 -33.95,279.94 -72.73,103.11 -118.2,83.48 -141.29,219.52 188.57,124.97 397.09,78.26 595.67,245.02 186.3,156.46 39.97,446.69 187.13,678.44 133.45,210.18 480.05,136.4 576.29,-69.19 147.5,-315.16 -244.87,-527.25 -33.81,-658.38 75,-46.61 394.96,-73.38 434.16,-412.32 33.13,-286.15 -237.81,-437.96 -456.23,-306.74 -155.72,93.55 -271.17,336.55 -546.79,294.4 -238.87,-36.5 -407.53,-253.98 -581.18,-270.69z"/>
  <path class="fil0" d="M24392.89 9658.21c-196.77,82.94 -206.93,190.92 -374.57,304.95 -146.87,99.93 -279.51,154.17 -373.85,322.17 -119.62,212.97 -54.94,389.46 138.42,456.83 251.86,87.73 349.58,-42.55 590.51,106.99 632.69,392.72 702.75,-272.9 609.34,-440.99 -194.89,-350.68 -69.09,-13.31 -205.11,-490.81 -48.05,-168.69 -174.61,-347.73 -384.74,-259.14z"/>
  <path class="fil0" d="M27571.87 12257.97c-145.35,61.01 -178.76,128.86 -114.74,382.11 44.14,174.61 -13.05,312.27 49.53,481.87 44.5,120.69 163.29,231.77 315.53,165.73 135.47,-58.77 167.53,-183.77 252.51,-301.09 123.02,-169.91 569.03,-268.65 366.7,-585.52 -101.49,-158.93 -189.99,-120.86 -405.31,-120.81 -205.59,0.09 -248.28,-112.89 -464.22,-22.29z"/>
  <path class="fil0" d="M22102.67 12449.18c106.14,-43.79 127.44,-90.99 181.73,-188.71 67,-120.53 128.27,-131.11 161.29,-198.73 49.13,-100.64 16.34,-232.11 -63.43,-268.39 -120.15,-54.69 -213.53,25.76 -325.54,20.11 -99,-4.96 -214.25,-77.83 -316.16,-1.08 -83.06,62.58 -50.98,199.21 -3.24,271.94 47.66,72.64 114.51,112.13 165.17,195.24 59.97,98.4 68.62,147.02 200.18,169.62z"/>
  <path class="fil0" d="M21881.66 6412.71c-110.32,252.62 78.25,320.67 167.75,469.59 132.18,220 250.6,251.17 379.75,2.89 65.61,-126.14 126.57,-126.62 164.75,-197.73 45.49,-84.76 31.99,-235.24 -48.08,-280.9 -108.84,-62.07 -215.61,12.59 -321.04,14.32 -157.4,2.61 -128.01,-62.52 -343.13,-8.17z"/>
  <path class="fil0" d="M23876.47 9264.67c-168.6,71.68 -522.83,702.01 -115.22,701.44 388.92,-0.54 372.01,-810.62 115.22,-701.44z"/>
  <path class="fil0" d="M25174.27 9600.8c-94.35,49.72 -197.23,209.25 -221.37,357.77 -29.81,183.24 45.93,350.39 209,364.32 340.15,29.07 255.43,-850.13 12.37,-722.09z"/>
  <path class="fil0" d="M24856.55 8994.38c-157.94,55.79 -354.23,766.74 28.67,703.34 312.19,-51.68 195.3,-782.48 -28.67,-703.34z"/>
  <path class="fil0" d="M24394.53 8941.22c-288.13,153.88 -413.85,680.25 -60.95,639.24 136.35,-15.83 194.58,-165.46 225.67,-324.16 32.14,-164.12 67.59,-439.12 -164.72,-315.08z"/>
  <path class="fil0" d="M27771.93 11772.53c-137.72,137.48 211.72,585.65 433.22,359.35 211.52,-216.11 -329.63,-462.72 -433.22,-359.35z"/>
  <path class="fil0" d="M26982.89 12589.5c-115.79,120.16 162.48,621.14 363.27,414.3 209.94,-216.22 -217.13,-565.94 -363.27,-414.3z"/>
  <path class="fil0" d="M27252.3 11796.44c-0.39,0.34 -104.98,0.85 -6.12,163.95 15.85,26.12 75.05,100.18 97.06,121.66 65.1,63.42 214.05,148.18 310.57,51.39 188.8,-189.33 -225.87,-482.46 -401.51,-337z"/>
  <path class="fil0" d="M27005.3 12059.92c-163.67,125.77 105.49,621.23 325.01,421.85 182.3,-165.6 -196.35,-520.7 -325.01,-421.85z"/>
  <path class="fil0" d="M25388.93 20117.58c51.79,-90.32 92.47,-279.6 91.02,-371.16 -2.98,-185.68 -199.04,-191.78 -493.02,-232.57 -358.73,-13.5 -508.3,-61.07 -567.87,-377.48 -47.91,-254.47 -171.95,-517.64 -492.14,-405.23 -270.63,95 -275.14,403.64 -100.98,613.8 252.4,304.53 -129.97,240.51 -265.3,508.39 -126.76,250.89 -9.84,567.9 299.09,524.56 269.04,-37.76 259.62,-344.47 509.29,-436.86 253.82,-93.91 782.69,192.77 1019.91,176.55z"/>
  <path class="fil0" d="M25058.79 19551.8c-43.37,212.66 -32.59,317.35 -63.8,540.42 232.49,39.77 526.01,2.78 698.47,144.26 128.1,105.1 125.8,453.79 271.74,594.2 170.45,163.98 477.5,16.91 537.69,-163.67 109.52,-328.55 -257.56,-441.28 -194.95,-621.82 43.42,-125.32 345.63,-120.41 370.76,-470.27 19.6,-272.36 -219.58,-470.81 -460.23,-318.82 -172.23,108.8 -195.15,362.13 -432.28,429.9 -257.39,73.52 -492.31,-121.43 -727.4,-134.2z"/>
  <path class="fil0" d="M22616.06 17463.7c-160.27,88.1 -141.97,168.49 -248,285.07 -82.34,90.54 -198.02,136.92 -251.09,302.4 -61.04,190.42 39.74,309.07 208.6,320.45 196.8,13.24 282.83,-83.11 491.31,-30.21 637.91,161.88 497.47,-342.6 407.7,-432.46 -152.55,-152.69 -79.74,-1.31 -250.78,-302.77 -56.67,-99.9 -188.97,-235.29 -357.74,-142.48z"/>
  <path class="fil0" d="M28093.41 16110.1c233.82,45.89 212.63,-125.72 325.52,-248.51 126.85,-138 194.81,-193.9 67.62,-397 -189.05,-26.89 -253.19,40.17 -383.04,20.99 -135.84,-20.05 -293.95,-71.39 -326.03,79.03 -33.42,156.6 74.8,234.95 136.32,300.36 80.3,85.38 97.92,167.78 179.61,245.13z"/>
  <path class="fil0" d="M23456.04 17781.79c85.24,-245.64 -112.21,-713.39 -287.57,-433.65 -144.86,231.09 -11.6,572.44 287.57,433.65z"/>
  <path class="fil0" d="M22083.84 17297.62c-115.08,94.68 -254.12,663.47 108.9,496.31 241.61,-111.28 90.76,-660.51 -108.9,-496.31z"/>
  <path class="fil0" d="M22831.38 16912.22c-140.35,112.05 -72.81,683.52 213.45,481.9 187.75,-132.24 -63.37,-601.71 -213.45,-481.9z"/>
  <path class="fil0" d="M22586.98 16918.78c-269.21,-36.85 -366.53,420.74 -192.88,502.06 281.41,131.76 300.33,-310.34 192.88,-502.06z"/>
  <path class="fil0" d="M17168.26 16457.97c51.79,-90.32 92.47,-279.6 91.02,-371.16 -2.98,-185.68 -199.04,-191.78 -493.02,-232.57 -358.73,-13.5 -508.3,-61.07 -567.87,-377.48 -47.91,-254.47 -171.95,-517.64 -492.14,-405.23 -270.63,95 -275.14,403.64 -100.98,613.8 252.4,304.53 -129.97,240.51 -265.3,508.39 -126.76,250.89 -9.84,567.9 299.09,524.56 269.04,-37.76 259.62,-344.47 509.29,-436.86 253.82,-93.91 782.69,192.77 1019.91,176.55z"/>
  <path class="fil0" d="M17108.72 15911.85c-43.37,212.66 -32.59,317.35 -63.8,540.42 232.49,39.77 526.01,2.78 698.47,144.26 128.1,105.1 125.8,453.79 271.74,594.2 170.45,163.98 477.5,16.91 537.69,-163.67 109.52,-328.55 -257.56,-441.28 -194.95,-621.82 43.42,-125.32 345.63,-120.41 370.76,-470.27 19.6,-272.36 -219.58,-470.81 -460.23,-318.82 -172.23,108.8 -195.15,362.13 -432.28,429.9 -257.39,73.52 -492.31,-121.43 -727.4,-134.2z"/>
  <path class="fil0" d="M27031.2 2662.51c-196.77,82.94 -206.93,190.92 -374.57,304.95 -146.87,99.93 -279.51,154.17 -373.85,322.17 -119.62,212.97 -54.94,389.46 138.42,456.83 251.86,87.73 349.58,-42.55 590.51,106.99 632.69,392.72 702.75,-272.9 609.34,-440.99 -194.89,-350.68 -69.09,-13.31 -205.11,-490.81 -48.05,-168.69 -174.61,-347.73 -384.74,-259.14z"/>
  <path class="fil0" d="M26514.78 2268.97c-168.6,71.68 -522.83,702.01 -115.22,701.44 388.92,-0.54 372.01,-810.62 115.22,-701.44z"/>
  <path class="fil0" d="M27812.58 2605.1c-94.35,49.72 -197.23,209.25 -221.37,357.77 -29.81,183.24 45.93,350.39 209,364.32 340.15,29.07 255.43,-850.13 12.37,-722.09z"/>
  <path class="fil0" d="M27494.86 1998.68c-157.94,55.79 -354.23,766.74 28.67,703.34 312.19,-51.68 195.3,-782.48 -28.67,-703.34z"/>
  <path class="fil0" d="M27032.84 1945.52c-288.13,153.88 -413.85,680.25 -60.95,639.24 136.35,-15.83 194.58,-165.46 225.67,-324.16 32.14,-164.12 67.59,-439.12 -164.72,-315.08z"/>
  <path class="fil0" d="M2854.19 1951.94l136.81 -74.35c425.28,-87.68 249.47,-160.63 82.57,-416.74 -206.39,-74.49 -665.57,-200.54 -785.81,-335.42 -145.65,-163.38 4.57,-487.31 -164.91,-699.23 -146.73,-183.5 -466.1,-101.46 -553.78,72.9 -157.31,312.81 202.73,523.19 30.78,652.62 -82.34,61.95 -389.88,57.7 -460.65,378.4 -61.19,277.13 164.32,480.39 412.94,370.02 180.88,-80.3 271.09,-339.36 581.8,-291.99 235.4,35.88 515.34,291.51 720.25,343.79z"/>
  <path class="fil0" d="M3029.43 1452.48c50.12,98.8 28.14,191.89 -33.95,279.94 -72.73,103.11 -118.2,83.48 -141.29,219.52 188.57,124.97 397.09,78.26 595.67,245.02 186.3,156.46 39.97,446.69 187.13,678.44 133.45,210.18 480.05,136.4 576.29,-69.19 147.5,-315.16 -244.87,-527.25 -33.81,-658.38 75,-46.61 394.96,-73.38 434.16,-412.32 33.13,-286.15 -237.81,-437.96 -456.23,-306.74 -155.72,93.55 -271.17,336.55 -546.79,294.4 -238.87,-36.5 -407.53,-253.98 -581.18,-270.69z"/>
  <path class="fil0" d="M1551.29 7254.33c-145.35,61.01 -178.76,128.86 -114.74,382.11 44.14,174.61 -13.05,312.27 49.53,481.87 44.5,120.69 163.29,231.77 315.53,165.73 135.47,-58.77 167.53,-183.77 252.51,-301.09 123.02,-169.91 569.03,-268.65 366.7,-585.52 -101.49,-158.93 -189.99,-120.86 -405.31,-120.81 -205.59,0.09 -248.28,-112.89 -464.22,-22.29z"/>
  <path class="fil0" d="M1751.35 6768.89c-137.72,137.48 211.72,585.65 433.22,359.35 211.52,-216.11 -329.63,-462.72 -433.22,-359.35z"/>
  <path class="fil0" d="M962.31 7585.86c-115.79,120.16 162.48,621.14 363.27,414.3 209.94,-216.22 -217.13,-565.94 -363.27,-414.3z"/>
  <path class="fil0" d="M1231.72 6792.8c-0.39,0.34 -104.98,0.85 -6.12,163.95 15.85,26.12 75.05,100.18 97.06,121.66 65.1,63.42 214.05,148.18 310.57,51.39 188.8,-189.33 -225.87,-482.46 -401.51,-337z"/>
  <path class="fil0" d="M984.72 7056.28c-163.67,125.77 105.49,621.23 325.01,421.85 182.3,-165.6 -196.35,-520.7 -325.01,-421.85z"/>
  <path class="fil0" d="M5912.4 9017.13l136.81 -74.35c425.28,-87.68 249.47,-160.63 82.57,-416.74 -206.39,-74.49 -665.57,-200.54 -785.81,-335.42 -145.65,-163.38 4.57,-487.31 -164.91,-699.23 -146.73,-183.5 -466.1,-101.46 -553.78,72.9 -157.31,312.81 202.73,523.19 30.78,652.62 -82.34,61.95 -389.88,57.7 -460.65,378.4 -61.19,277.13 164.32,480.39 412.94,370.02 180.88,-80.3 271.09,-339.36 581.8,-291.99 235.4,35.88 515.34,291.51 720.25,343.79z"/>
  <path class="fil0" d="M6087.64 8517.67c50.12,98.8 28.14,191.89 -33.95,279.94 -72.73,103.11 -118.2,83.48 -141.29,219.52 188.57,124.97 397.09,78.26 595.67,245.02 186.3,156.46 39.97,446.69 187.13,678.44 133.45,210.18 480.05,136.4 576.29,-69.19 147.5,-315.16 -244.87,-527.25 -33.81,-658.38 75,-46.61 394.96,-73.38 434.16,-412.32 33.13,-286.15 -237.81,-437.96 -456.23,-306.74 -155.72,93.55 -271.17,336.55 -546.79,294.4 -238.87,-36.5 -407.53,-253.98 -581.18,-270.69z"/>
  <path class="fil0" d="M4616.39 11306.41c-196.77,82.94 -206.93,190.92 -374.57,304.95 -146.87,99.93 -279.51,154.17 -373.85,322.17 -119.62,212.97 -54.94,389.46 138.42,456.83 251.86,87.73 349.58,-42.55 590.51,106.99 632.69,392.72 702.75,-272.9 609.34,-440.99 -194.89,-350.68 -69.09,-13.31 -205.11,-490.81 -48.05,-168.69 -174.61,-347.73 -384.74,-259.14z"/>
  <path class="fil0" d="M1841.09 4016.19c-110.32,252.62 78.25,320.67 167.75,469.59 132.18,220 250.6,251.17 379.75,2.89 65.61,-126.14 126.57,-126.62 164.75,-197.73 45.49,-84.76 31.99,-235.24 -48.08,-280.9 -108.84,-62.07 -215.61,12.59 -321.04,14.32 -157.4,2.61 -128.01,-62.52 -343.13,-8.17z"/>
  <path class="fil0" d="M4099.97 10912.87c-168.6,71.68 -522.83,702.01 -115.22,701.44 388.92,-0.54 372.01,-810.62 115.22,-701.44z"/>
  <path class="fil0" d="M5397.77 11249c-94.35,49.72 -197.23,209.25 -221.37,357.77 -29.81,183.24 45.93,350.39 209,364.32 340.15,29.07 255.43,-850.13 12.37,-722.09z"/>
  <path class="fil0" d="M5080.05 10642.58c-157.94,55.79 -354.23,766.74 28.67,703.34 312.19,-51.68 195.3,-782.48 -28.67,-703.34z"/>
  <path class="fil0" d="M4618.03 10589.42c-288.13,153.88 -413.85,680.25 -60.95,639.24 136.35,-15.83 194.58,-165.46 225.67,-324.16 32.14,-164.12 67.59,-439.12 -164.72,-315.08z"/>
  <path class="fil0" d="M6777.37 1518.46c-196.77,82.94 -206.93,190.92 -374.57,304.95 -146.87,99.93 -279.51,154.17 -373.85,322.17 -119.62,212.97 -54.94,389.46 138.42,456.83 251.86,87.73 349.58,-42.55 590.51,106.99 632.69,392.72 702.75,-272.9 609.34,-440.99 -194.89,-350.68 -69.09,-13.31 -205.11,-490.81 -48.05,-168.69 -174.61,-347.73 -384.74,-259.14z"/>
  <path class="fil0" d="M6260.95 1124.92c-168.6,71.68 -522.83,702.01 -115.22,701.44 388.92,-0.54 372.01,-810.62 115.22,-701.44z"/>
  <path class="fil0" d="M7558.75 1461.05c-94.35,49.72 -197.23,209.25 -221.37,357.77 -29.81,183.24 45.93,350.39 209,364.32 340.15,29.07 255.43,-850.13 12.37,-722.09z"/>
  <path class="fil0" d="M7241.03 854.63c-157.94,55.79 -354.23,766.74 28.67,703.34 312.19,-51.68 195.3,-782.48 -28.67,-703.34z"/>
  <path class="fil0" d="M6779.01 801.47c-288.13,153.88 -413.85,680.25 -60.95,639.24 136.35,-15.83 194.58,-165.46 225.67,-324.16 32.14,-164.12 67.59,-439.12 -164.72,-315.08z"/>
  <path class="fil0" d="M9107.83 5120.09c-196.77,82.94 -206.93,190.92 -374.57,304.95 -146.87,99.93 -279.51,154.17 -373.85,322.17 -119.62,212.97 -54.94,389.46 138.42,456.83 251.86,87.73 349.58,-42.55 590.51,106.99 632.69,392.72 702.75,-272.9 609.34,-440.99 -194.89,-350.68 -69.09,-13.31 -205.11,-490.81 -48.05,-168.69 -174.61,-347.73 -384.74,-259.14z"/>
  <path class="fil0" d="M8591.41 4726.55c-168.6,71.68 -522.83,702.01 -115.22,701.44 388.92,-0.54 372.01,-810.62 115.22,-701.44z"/>
  <path class="fil0" d="M9889.21 5062.68c-94.35,49.72 -197.23,209.25 -221.37,357.77 -29.81,183.24 45.93,350.39 209,364.32 340.15,29.07 255.43,-850.13 12.37,-722.09z"/>
  <path class="fil0" d="M9571.49 4456.26c-157.94,55.79 -354.23,766.74 28.67,703.34 312.19,-51.68 195.3,-782.48 -28.67,-703.34z"/>
  <path class="fil0" d="M9109.47 4403.1c-288.13,153.88 -413.85,680.25 -60.95,639.24 136.35,-15.83 194.58,-165.46 225.67,-324.16 32.14,-164.12 67.59,-439.12 -164.72,-315.08z"/>
  <path class="fil0" d="M6417.28 18931.15c-110.32,252.62 78.25,320.67 167.75,469.59 132.18,220 250.6,251.17 379.75,2.89 65.61,-126.14 126.57,-126.62 164.75,-197.73 45.49,-84.76 31.99,-235.24 -48.08,-280.9 -108.84,-62.07 -215.61,12.59 -321.04,14.32 -157.4,2.61 -128.01,-62.52 -343.13,-8.17z"/>
  <path class="fil0" d="M14383.22 11939.76c-110.32,252.62 78.25,320.67 167.75,469.59 132.18,220 250.6,251.17 379.75,2.89 65.61,-126.14 126.57,-126.62 164.75,-197.73 45.49,-84.76 31.99,-235.24 -48.08,-280.9 -108.84,-62.07 -215.61,12.59 -321.04,14.32 -157.4,2.61 -128.01,-62.52 -343.13,-8.17z"/>
  <path class="fil0" d="M2107.39 14669.77l136.81 -74.35c425.28,-87.68 249.47,-160.63 82.57,-416.74 -206.39,-74.49 -665.57,-200.54 -785.81,-335.42 -145.65,-163.38 4.57,-487.31 -164.91,-699.23 -146.73,-183.5 -466.1,-101.46 -553.78,72.9 -157.31,312.81 202.73,523.19 30.78,652.62 -82.34,61.95 -389.88,57.7 -460.65,378.4 -61.19,277.13 164.32,480.39 412.94,370.02 180.88,-80.3 271.09,-339.36 581.8,-291.99 235.4,35.88 515.34,291.51 720.25,343.79z"/>
  <path class="fil0" d="M2282.63 14170.31c50.12,98.8 28.14,191.89 -33.95,279.94 -72.73,103.11 -118.2,83.48 -141.29,219.52 188.57,124.97 397.09,78.26 595.67,245.02 186.3,156.46 39.97,446.69 187.13,678.44 133.45,210.18 480.05,136.4 576.29,-69.19 147.5,-315.16 -244.87,-527.25 -33.81,-658.38 75,-46.61 394.96,-73.38 434.16,-412.32 33.13,-286.15 -237.81,-437.96 -456.23,-306.74 -155.72,93.55 -271.17,336.55 -546.79,294.4 -238.87,-36.5 -407.53,-253.98 -581.18,-270.69z"/>
  <g id="_2033651791056">
   <path class="fil1" d="M29310.76 18261.86l0 67.32c-21.08,39.34 -35.07,104.54 -60.78,150.93 -13.03,23.52 -57.9,116.95 -57,144.03 3.21,-4.15 23.69,-16.17 35.74,-22.39 -11.37,55.6 -40.37,69.36 -80.02,95.67 -115.65,76.75 -189.58,156 -332,210.95 -207.42,80.03 -399.26,33.13 -612.34,-16.51l-89.84 101.79c-84.21,91.89 -222.43,181.84 -347.96,228.97 -265.94,99.86 -622.22,100.23 -659.42,111.94l-318.54 0c-25.33,-10.79 -322.05,-35.15 -384.8,-44.94 -123.61,-19.29 -250.28,-53.1 -365.6,-69.41 -134.32,-19.01 -72.37,12.4 -169.43,-48.28l-35.2 -10.87c-48.47,-4.28 -93.95,23.63 -103.36,-53.44 -12.28,-100.55 69.75,-260.74 118.36,-309.73 158.11,-159.36 634.79,26.52 477.35,-326.92 -65.06,-146.06 -167.48,-180.54 -264.11,-280.38 -16.36,-16.91 -38.03,-10.67 -57.47,-22.69 -44.92,-27.81 -70.93,-81.64 -114.26,-103.57l19.74 59.6c-45.12,-20.53 -122.08,-81.95 -143.56,-120l-13.45 40.07c-114.51,-60.05 -100.69,-8.85 -189.18,-128.71 -8.41,93.74 38.17,171.02 43.22,266.97 -18.43,-7.97 -18.45,-10.41 -34.15,-19.49 48.93,129.18 -23.58,302.2 50.51,551.22 -18.55,-17.03 -6.21,-16.23 -27.95,-14.48 -12.05,68.61 7.69,141.04 1.76,217.68 -14.28,-8.01 -20.29,-20.96 -33.07,-36.49 -23.89,31 -19.92,89.96 -54.3,118.11l-23.41 -28.32c-9.98,76.97 -110.44,194.44 -150.36,231.11 -70.4,64.66 -207.36,68.71 -319.13,60.86 -140.88,-9.89 -330.04,-41.48 -406.21,-162.33 -41.69,-66.16 -22.5,-87.2 -33.64,-163.26 -28.66,-12.32 -127.41,-17.68 -170.06,-26.67 -55.93,-11.8 -109.67,-34.38 -138.38,-65.45 -95.25,-103.06 26.49,-205.5 89.89,-247.3 88.65,-58.45 196.54,-70.27 253.62,-153.79 45.45,-66.51 74.46,-234.65 74.04,-330.89 -14.45,-7.17 -3.68,0.3 -17.5,0.18l-5.73 -0.39c25.32,-41.9 51.17,-183.64 24.98,-235.81 -0.57,-1.14 -4.21,-1.46 -1.05,-15.73l4.45 -175.03c-0.57,-0.07 -2.61,-0.22 -3.71,-0.84 -6.89,-107.17 12.6,-179.8 -36.33,-268.17 -38.35,-69.28 -88.4,-106.95 -115.1,-192.6 -5.74,29.35 0.86,56.25 -49.91,-15.87 -84.21,-119.67 -28,-214.33 -80.29,-300.9 -21.17,40.18 -28.66,82.24 -40.06,130.01 -26.97,-134.74 -145.05,-125.75 -169,-388.78 -5.38,-59.04 12.37,-72.9 -24.5,-110.65 -78.47,-80.34 -64.01,-254.82 -38.79,-348.11 -23.43,9.16 -25.82,13.73 -44.33,23.62 11.65,-79.65 58.78,-129.97 78.86,-203.4 13.39,-48.96 -21.93,23.61 1.72,-71.93 15.08,-60.93 35.25,-124.19 61.14,-178.84 -27.55,4.49 -44.94,16.28 -64.81,27.02 15.75,-71.75 57.75,-83.58 104.38,-121.11 17,-13.69 20.77,-21.7 38.43,-34.06 -17.18,-116.28 -56.5,-141.9 42.82,-258.26 18.79,-22.02 48.17,-38.97 60.71,-54.62 27.69,-34.56 -17.09,-186.9 21.78,-310.4 20.12,-63.9 33.71,-17.77 58.83,-58.26 26.16,-57.65 -11.92,-201.5 -35.88,-250.77 -28.66,-58.91 -55.32,-9.05 -113.93,-183.78 -26.93,-12.13 29.06,0.06 -12.66,1.72 -11.04,0.44 15.94,13.23 -15.06,-1.98 -31.61,-15.52 -52.04,-64.36 -69.75,-93.34 -29.25,-47.87 -59.6,-101.2 -97.22,-120.43 -1.75,9.02 -1.83,18.16 -3.04,24.41 -1.54,7.91 -0.53,4.69 -2.63,12.25 -3.74,13.45 -1.82,9.39 -6.65,16.98 -24.32,-41.2 -70.15,-91.22 -103.07,-129.86l11.02 47.69c-28.27,-35.88 -50.08,-90.1 -91.11,-118.35 79.39,211.76 -75.18,-92.52 -163.73,-129.71 -4.13,-50.52 -53.69,-69.88 -99.22,-119.65l-153.26 -172.79c-17.75,-22.07 -31.42,-42.94 -58.22,-54.34 43.42,152.68 -58.88,-111.22 -115.62,-106.09 -66.61,-110.78 -242.8,-106.64 -188.27,-516.2 29.12,-218.77 118.25,-317.18 120.11,-332.48 6.23,-51.2 -31.04,-130.83 108.13,-158.09 55.81,-10.93 109.87,2.83 145.19,29.26 53.41,39.95 11.65,49.38 101.2,81.98 91.31,33.23 181.15,72.6 292.41,73.95 278.22,3.34 298.72,-241.72 483.07,-249.39 -12.95,-39.57 -22.43,-57.09 -23.28,-105.29 30.12,26.75 45.94,54.01 81.27,74.88l7.64 -61.41c48.33,34.07 67.99,35.1 121.67,1.32l-8.47 39.69c68.73,-1.29 105.26,-9.02 182.82,-0.13 56.99,6.54 113.85,15.6 167.81,27.86 388.5,88.32 747.1,358.39 867.05,734.67 44.8,140.51 35.78,253.89 87.9,312.9 26.35,29.82 73.05,64.62 106.35,90.4l142.48 108.85c8.84,7.76 14.41,15.32 23.08,23.96 92.52,92.23 67.46,72.53 133.74,171.24l-20.79 3.9c-0.54,0.14 -2.45,0.47 -3.5,1.09 32.97,38.8 108.14,191.79 113.1,255.04 1.32,16.84 146.76,330.26 120.11,432.95 -29.76,114.63 -9.31,204.45 -40.16,340.48 -10.28,45.33 -18.9,117.87 -30.49,157.83 -17.44,-12.08 -10.87,-10.25 -24.79,-29.14 -17.1,20.06 -21.27,30.31 -39.7,47.71 -19.76,18.66 -26.38,25.97 -32.23,58.41l-30.21 -21.45 -11.59 53.2c-38.21,10.02 -75.52,34.48 -108.7,29.68l-7.86 -2.13c-3.26,-0.34 -4.25,-0.84 -11.56,0.49 -28.73,5.22 7.28,7.65 -51.82,-0.4 -9.25,22.54 -18.98,24.79 -32.67,42.82 -16.73,-10.08 -20.7,-22.68 -42.75,-16.02 -7.84,2.37 -36.83,16.93 -43.57,21.64 32.63,48.46 115.43,118.03 164.79,157.34l151.18 133.27c4.97,4.78 6.28,5.48 11.01,10.85 9.47,10.76 1.78,-0.45 10.59,13.99l-60.18 -9.4c37.34,66.78 115.42,132.38 186.23,164.72 -23.94,4.64 20.43,-4.14 -11.31,0.74 -0.76,0.12 -3.05,0.41 -3.86,0.56l-11.46 3.07c31.83,70.45 106.25,95.63 168.8,139.58l-53.92 2.35c17.29,35.26 110.59,116.3 144.87,148.51l621.26 546.33c56.04,44.16 107.29,84.05 164.34,127.5 271.96,207.15 587.16,396.04 746.01,713.22 10.3,20.56 17.64,34.82 14.38,54.49 -7.43,44.94 240.25,360.17 151.54,882.37 -8.03,47.24 -56.73,216.26 -55.42,234.72 260.16,53.22 424.75,-138.45 446.58,-364.98 17.82,-184.89 -48.82,-342.53 -195.51,-428.08 -64.23,-37.45 -94.58,-27.61 -163.4,-46.85 -3.5,-73.39 58.4,-127.62 106.53,-151.84l-34.31 -12.73c83.5,-44.49 73.33,-59.19 183.51,-68.01l-51.39 -30.57c68.27,0.32 190.18,70.74 263.92,91.95l-22.88 -51.43c52.82,16.12 126.01,67.93 165.88,106.51 11.92,11.53 30.93,37.52 43.2,47.47 25.67,20.78 -7.63,-14.43 17.95,13.25 8.83,9.56 12.05,17.07 19.28,28.7 39.1,62.93 73.79,126.3 84.27,204.03 1.43,-0.57 3.15,-4.11 3.57,-2.93 6.56,18.79 2.55,-15.04 14.54,-11.49 23.63,139.12 18.06,230.21 0.88,365.43 25.86,-14.56 35.04,-33.56 73.6,-46.65z"/>
   <path class="fil1" d="M19442.91 11312.16c-156.63,-478.75 246.93,-568.28 779.1,-589.61l63.92 -329.48c96.47,118.07 89.42,208.02 103.67,386.03 157.14,-66.1 97.98,-115.04 302.03,-139.67 199.72,1177.4 -643.04,1570.69 -117.24,1980.2 281.43,219.13 440.14,368.92 661.72,619.98 351.08,397.72 463.72,1022.71 760.33,1181.05 134.14,71.64 291.07,182.19 344.45,320.4 155.01,401.48 -93.71,733.25 -419.69,814.33 -205.82,51.23 -1656.72,153.91 -1893.06,84.93l-141.13 -36c-152.35,-29.53 -128.45,20.25 -252.73,-91.3 24.94,-308.03 365.74,-178.43 697.35,-213.02 -124.85,-410.66 -268.17,-863.32 -529.56,-1154.08 -91.25,92.76 -177.76,401.58 -220.54,528.25 -237.23,702.16 -72,1030.17 -487.35,1012.38 -126.37,-5.43 -222.42,-17.69 -191.69,-143.84 44.61,-183.24 69.76,-66.78 179.37,-206.4l173.32 -1543.87c25,-359.32 -255.59,-697.4 -232.59,-1189.71 39.66,-848.87 -521.47,-826.8 -619.24,-2128.9 -70.86,-943.82 -339.39,-448.74 -334.7,-1100.96 49.52,-37.67 -4.38,-3.5 82.33,-63.45 89.17,-61.67 38.09,-28.22 123.13,-77.58 209.27,197.37 240.47,162.47 316.17,471.13 54.84,223.77 145.67,399.28 212.82,622.12 169.56,563.21 127.15,806.44 639.81,987.07z"/>
   <path class="fil1" d="M9755.68 9248.31c-86.01,-194.83 12.82,-258.57 -236.87,-335.86 60.16,-108.29 94.37,-117.38 120.96,-188 95.37,-253.32 4.99,-62.64 -7.57,-162.89 -25.74,-205.71 254.74,-426.61 -205.24,-402.6 -571,29.85 -370.7,-168.24 -781.33,-123.79 -885.95,95.95 -281.38,1498.3 -252.16,1787.14 49.34,488.03 171.14,603.84 93.05,1136.64 -63.05,429.76 -90.74,638.46 -202.92,1046.52 -239.18,870.24 -643.51,940.02 -786.96,1081.1 -141.76,139.51 -121.43,179.44 -359.67,262.88 -279.22,97.84 -204.76,114.92 -401.7,223.06 -205.6,112.81 -242.49,76.82 -254.1,380.42 571.79,71.09 1171.32,-316.74 1305.57,-531.28 98.1,-156.74 -13.19,-59.32 149.59,-161.1 97.1,-60.74 162.99,-96.58 225,-150.59 26.32,461.13 163.67,534.01 196.99,784.27 45.24,340.39 -241.18,409.43 -92.17,761.79 64.48,152.49 81.81,171.93 132.94,357.88 83.07,302.29 71.83,151.38 196.31,294.36 256.89,295.03 -46.61,397.97 607.46,376.16 7.2,-211.7 20.97,-184.38 -134.09,-270.92 -257.15,-143.55 -124.85,15.71 -202.98,-226.46 -325.57,-1009.01 588.92,-832.94 369.91,-2170.3 -134.51,-821.48 244.6,-586.39 487.19,-1263.9 254.53,-710.61 382.95,-636.47 389.36,-1521.42 63.16,-47.92 135.67,-91.69 223,-160.37 35.25,-329.82 -129.79,-820.48 -59.85,-1013.79 97.99,-270.76 473.74,-152.01 489.97,-631.9 -398.76,-26.01 -432.23,162.94 -680.03,277.33 -84.64,-509.94 341.91,-604.63 102.73,-1041.9 -200.2,126.95 -276.59,376.48 -391.93,650.87 -149.54,355.93 45.03,616.03 -40.46,936.65z"/>
   <path class="fil1" d="M1727.25 18391.41c-305.55,138.09 -391.49,51.94 -414.41,364.23 373.14,312.14 138.37,-68.13 308.61,397.74 158.35,24.21 333.23,14.01 445.48,40.25 578.73,135.37 498.37,325.4 944.25,-260.13 238.92,0.34 357.16,122.72 631.7,109.12 282.44,-13.93 129.25,-40.18 311.54,-81.38 115.1,-25.97 266.32,-14.96 401.01,-28.56 187.51,-278.49 119.59,-226.75 572,-281.21 1466.49,-176.7 487.97,-1684.33 53.03,-1219.82 -137.47,313.37 245.79,292.7 154.07,741.31 -137.54,55 -275.23,76.62 -467.78,54.59 -8.36,-1022.51 -31.34,-666.1 -335.26,-1484.57 -183.16,-493.21 -200.98,-949.36 -545.01,-1297.47 -233.75,-236.54 -234.57,-164.33 -378.1,-542.63 -157.87,-416.31 -108.31,-271.62 42.57,-660.05 168.54,-433.85 35.08,-425.63 -55.62,-710.98 -57.45,-180.59 129.52,-442.62 165.35,-718.87 -205.87,66.7 -360.55,211.52 -507.62,236.13 -180.44,30.26 -331.38,-71.39 -564.66,-78.53 -359.74,-10.94 -305.28,112.05 -519.04,-76.55 -168.34,-148.63 -152.36,-245.11 -456.42,-238.72 -144.48,570.17 124.63,830.37 -125.71,1483.9 -552.56,1442.56 -36.31,1870.15 193.77,2767.22 99.06,386.25 2.99,423.78 -17.13,757.55 -21.42,353.69 121.56,467.84 163.38,727.43z"/>
   <g>
    <path class="fil1" d="M13706.14 7820.12l-22.21 266.13c-69.18,61.13 -115.95,88.39 -228.59,118.17 -90.75,24 -221.95,39.95 -312.7,4 -328.47,-130.11 -318.23,247.7 -124.82,260.11 155.66,9.99 110.82,-171.38 510.15,-204.38 52.48,-4.34 114.65,-4.84 165.62,9.48 115.43,32.43 23.95,83.09 147.78,214.81 35.96,38.24 69.75,48.22 54.1,110.54 -36.9,146.95 -329.5,478.87 -534.41,544.31 -59.23,18.91 -83.9,30.31 -106.4,71.86 -87.7,161.94 138.67,309.17 244.94,170.84 35.31,-45.96 45.41,-370.62 448,-646.22 126.49,-86.6 103.93,-36.55 224.29,16.52 129.33,57.04 178.65,-6.33 227.6,136.95 96.2,281.61 -227.98,378.17 -50.27,532.44 80.56,69.93 200.66,29.83 234.66,-51.64 48.67,-116.64 -52.79,-167.9 -85.82,-256.72 -33.9,-91.18 -23.36,-224.86 32.43,-291.61 47.8,-57.19 187.36,-68.08 274.15,-91.37 151.09,-40.55 312.42,167.91 391.46,282.03 69.58,100.45 82,129.84 98.73,266.14 12.97,105.77 108.91,175.37 220.01,119.67 75.6,-37.92 108.63,-166.89 28.92,-236.55 -59.98,-52.4 -158.65,-57.71 -235.55,-129.73 -87.05,-81.54 -278.94,-287.35 -277.69,-456.27 119.22,-94.97 58.58,-268.35 370.17,-175.81 79.47,23.61 143.81,62.9 181.82,109.54 47.98,58.88 80.85,135.18 203.75,96.96 171.63,-53.36 103.4,-344.87 -110.79,-276.06 -207.24,66.57 -337.29,26.35 -453.83,-87.2 5.79,-131.06 37.5,-123.54 5.94,-277.33 102.36,-123.86 480.12,-216.55 694.4,-222.63 134.96,-3.84 276.89,89.43 346.69,-45.36 66.66,-128.73 -73.06,-268.3 -201.07,-199.99 -47.66,25.44 -55.87,68.91 -113.05,106.24 -160.79,104.96 -637.43,216.21 -743.58,168.19 -62.26,-28.16 4.79,-38.51 -92.53,-141.43 -130.29,-137.8 88.3,-344.22 222.73,-378.65 80.4,-20.59 123.41,-6.96 170.29,-62.38 91.61,-108.32 -6.25,-275.04 -152.61,-241.4 -133.49,30.69 -96.28,193.62 -162.12,292.64 -35.81,53.86 -179.37,212.51 -285.72,161.64 -49.38,-23.62 -49.51,-62.41 -139.12,-82.19 -64.38,-14.22 -134.17,-8.79 -185.21,-48.1 -101.56,-78.19 -102.06,-413.84 -17.04,-542.77 30.97,-46.96 75.97,-82.36 48.46,-173.34 -55.56,-183.74 -413.86,-94.39 -239.3,164.61 106.67,158.26 83.78,485.01 -19.31,544.28 -27.78,15.97 -132.66,33.84 -174.12,43.5 -72.6,16.91 -113.15,58.31 -178.89,33.62 -232.56,-87.34 -187.93,-382.92 -243.03,-443.86 -37.96,-41.99 -118.7,-55.52 -179.43,-30.27 -107.95,44.89 -114.95,228.36 23.16,274.78 73.4,24.66 99.52,22.95 154.22,64.84 266.38,204 85.23,430.25 38.78,447.46 -105.09,38.94 -847.55,-261.78 -945.76,-415.94 -36.13,-56.72 -47.74,-100.53 -119.64,-115.19 -74.54,-15.21 -135.45,16.42 -161.9,61.84 -74.38,127.68 28.38,251.38 177.58,224.13 186.13,-33.99 512.12,136 673.77,222.67 198.35,106.35 146,94.16 281.91,183.45z"/>
    <path class="fil2" d="M11541.58 7962.37c0,-1587.62 1287.78,-2875.4 2875.4,-2875.4 1587.62,0 2875.4,1287.78 2875.4,2875.4 0,1587.62 -1287.78,2875.4 -2875.4,2875.4 -1587.62,0 -2875.4,-1287.78 -2875.4,-2875.4zm4430.08 -1868.91c-424.22,-352.89 -961.76,-562.11 -1554.68,-562.11 -1342.27,0 -2431.02,1088.75 -2431.02,2431.02 0,551.82 182.93,1098.85 562.11,1554.68 1141.2,-1141.19 2282.4,-2282.39 3423.59,-3423.59zm-3109.36 3737.82c424.22,352.89 961.76,562.11 1554.68,562.11 1342.27,0 2431.02,-1088.75 2431.02,-2431.02 0,-551.82 -182.93,-1098.85 -562.11,-1554.68 -1141.2,1141.19 -2282.4,2282.39 -3423.59,3423.59z"/>
   </g>
  </g>
  <path class="fil0" d="M17621.44 1231.3c-196.77,82.94 -206.93,190.92 -374.57,304.95 -146.87,99.93 -279.51,154.17 -373.85,322.17 -119.62,212.97 -54.94,389.46 138.42,456.83 251.86,87.73 349.58,-42.55 590.51,106.99 632.69,392.72 702.75,-272.9 609.34,-440.99 -194.89,-350.68 -69.09,-13.31 -205.11,-490.81 -48.05,-168.69 -174.61,-347.73 -384.74,-259.14z"/>
  <path class="fil0" d="M17105.02 837.76c-168.6,71.68 -522.83,702.01 -115.22,701.44 388.92,-0.54 372.01,-810.62 115.22,-701.44z"/>
  <path class="fil0" d="M18402.82 1173.89c-94.35,49.72 -197.23,209.25 -221.37,357.77 -29.81,183.24 45.93,350.39 209,364.32 340.15,29.07 255.43,-850.13 12.37,-722.09z"/>
  <path class="fil0" d="M18085.1 567.47c-157.94,55.79 -354.23,766.74 28.67,703.34 312.19,-51.68 195.3,-782.48 -28.67,-703.34z"/>
  <path class="fil0" d="M17623.08 514.31c-288.13,153.88 -413.85,680.25 -60.95,639.24 136.35,-15.83 194.58,-165.46 225.67,-324.16 32.14,-164.12 67.59,-439.12 -164.72,-315.08z"/>
 </g>
</svg>
