<?xml version="1.0" encoding="UTF-8"?>
<!DOCTYPE svg PUBLIC "-//W3C//DTD SVG 1.1//EN" "http://www.w3.org/Graphics/SVG/1.1/DTD/svg11.dtd">
<!-- Creator: CorelDRAW 2018 (64 Bit) -->
<svg xmlns="http://www.w3.org/2000/svg" xml:space="preserve" width="297mm" height="210mm" version="1.1" style="shape-rendering:geometricPrecision; text-rendering:geometricPrecision; image-rendering:optimizeQuality; fill-rule:evenodd; clip-rule:evenodd"
viewBox="0 0 29700 21000"
 xmlns:xlink="http://www.w3.org/1999/xlink">
 <defs>
  <style type="text/css">
   <![CDATA[
    .fil0 {fill:black}
    .fil1 {fill:white;fill-rule:nonzero}
   ]]>
  </style>
 </defs>
 <g id="Camada_x0020_1">
  <metadata id="CorelCorpID_0Corel-Layer"/>
  <path class="fil0" d="M26724.88 17991.78l0 67.32c-21.08,39.34 -35.07,104.54 -60.78,150.93 -13.03,23.52 -57.9,116.95 -57,144.03 3.21,-4.15 23.69,-16.17 35.74,-22.39 -11.37,55.6 -40.37,69.36 -80.02,95.67 -115.65,76.75 -189.58,156 -332,210.95 -207.42,80.03 -399.26,33.13 -612.34,-16.51l-89.84 101.79c-84.21,91.89 -222.43,181.84 -347.96,228.97 -265.94,99.86 -622.22,100.23 -659.42,111.94l-318.54 0c-25.33,-10.79 -322.05,-35.15 -384.8,-44.94 -123.61,-19.29 -250.28,-53.1 -365.6,-69.41 -134.32,-19.01 -72.37,12.4 -169.43,-48.28l-35.2 -10.87c-48.47,-4.28 -93.95,23.63 -103.36,-53.44 -12.28,-100.55 69.75,-260.74 118.36,-309.73 158.11,-159.36 634.79,26.52 477.35,-326.92 -65.06,-146.06 -167.48,-180.54 -264.11,-280.38 -16.36,-16.91 -38.03,-10.67 -57.47,-22.69 -44.92,-27.81 -70.93,-81.64 -114.26,-103.57l19.74 59.6c-45.12,-20.53 -122.08,-81.95 -143.56,-120l-13.45 40.07c-114.51,-60.05 -100.69,-8.85 -189.18,-128.71 -8.41,93.74 38.17,171.02 43.22,266.97 -18.43,-7.97 -18.45,-10.41 -34.15,-19.49 48.93,129.18 -23.58,302.2 50.51,551.22 -18.55,-17.03 -6.21,-16.23 -27.95,-14.48 -12.05,68.61 7.69,141.04 1.76,217.68 -14.28,-8.01 -20.29,-20.96 -33.07,-36.49 -23.89,31 -19.92,89.96 -54.3,118.11l-23.41 -28.32c-9.98,76.97 -110.44,194.44 -150.36,231.11 -70.4,64.66 -207.36,68.71 -319.13,60.86 -140.88,-9.89 -330.04,-41.48 -406.21,-162.33 -41.69,-66.16 -22.5,-87.2 -33.64,-163.26 -28.66,-12.32 -127.41,-17.68 -170.06,-26.67 -55.93,-11.8 -109.67,-34.38 -138.38,-65.45 -95.25,-103.06 26.49,-205.5 89.89,-247.3 88.65,-58.45 196.54,-70.27 253.62,-153.79 45.45,-66.51 74.46,-234.65 74.04,-330.89 -14.45,-7.17 -3.68,0.3 -17.5,0.18l-5.73 -0.39c25.32,-41.9 51.17,-183.64 24.98,-235.81 -0.57,-1.14 -4.21,-1.46 -1.05,-15.73l4.45 -175.03c-0.57,-0.07 -2.61,-0.22 -3.71,-0.84 -6.89,-107.17 12.6,-179.8 -36.33,-268.17 -38.35,-69.28 -88.4,-106.95 -115.1,-192.6 -5.74,29.35 0.86,56.25 -49.91,-15.87 -84.21,-119.67 -28,-214.33 -80.29,-300.9 -21.17,40.18 -28.66,82.24 -40.06,130.01 -26.97,-134.74 -145.05,-125.75 -169,-388.78 -5.38,-59.04 12.37,-72.9 -24.5,-110.65 -78.47,-80.34 -64.01,-254.82 -38.79,-348.11 -23.43,9.16 -25.82,13.73 -44.33,23.62 11.65,-79.65 58.78,-129.97 78.86,-203.4 13.39,-48.96 -21.93,23.61 1.72,-71.93 15.08,-60.93 35.25,-124.19 61.14,-178.84 -27.55,4.49 -44.94,16.28 -64.81,27.02 15.75,-71.75 57.75,-83.58 104.38,-121.11 17,-13.69 20.77,-21.7 38.43,-34.06 -17.18,-116.28 -56.5,-141.9 42.82,-258.26 18.79,-22.02 48.17,-38.97 60.71,-54.62 27.69,-34.56 -17.09,-186.9 21.78,-310.4 20.12,-63.9 33.71,-17.77 58.83,-58.26 26.16,-57.65 -11.92,-201.5 -35.88,-250.77 -28.66,-58.91 -55.32,-9.05 -113.93,-183.78 -26.93,-12.13 29.06,0.06 -12.66,1.72 -11.04,0.44 15.94,13.23 -15.06,-1.98 -31.61,-15.52 -52.04,-64.36 -69.75,-93.34 -29.25,-47.87 -59.6,-101.2 -97.22,-120.43 -1.75,9.02 -1.83,18.16 -3.04,24.41 -1.54,7.91 -0.53,4.69 -2.63,12.25 -3.74,13.45 -1.82,9.39 -6.65,16.98 -24.32,-41.2 -70.15,-91.22 -103.07,-129.86l11.02 47.69c-28.27,-35.88 -50.08,-90.1 -91.11,-118.35 79.39,211.76 -75.18,-92.52 -163.73,-129.71 -4.13,-50.52 -53.69,-69.88 -99.22,-119.65l-153.26 -172.79c-17.75,-22.07 -31.42,-42.94 -58.22,-54.34 43.42,152.68 -58.88,-111.22 -115.62,-106.09 -66.61,-110.78 -242.8,-106.64 -188.27,-516.2 29.12,-218.77 118.25,-317.18 120.11,-332.48 6.23,-51.2 -31.04,-130.83 108.13,-158.09 55.81,-10.93 109.87,2.83 145.19,29.26 53.41,39.95 11.65,49.38 101.2,81.98 91.31,33.23 181.15,72.6 292.41,73.95 278.22,3.34 298.72,-241.72 483.07,-249.39 -12.95,-39.57 -22.43,-57.09 -23.28,-105.29 30.12,26.75 45.94,54.01 81.27,74.88l7.64 -61.41c48.33,34.07 67.99,35.1 121.67,1.32l-8.47 39.69c68.73,-1.29 105.26,-9.02 182.82,-0.13 56.99,6.54 113.85,15.6 167.81,27.86 388.5,88.32 747.1,358.39 867.05,734.67 44.8,140.51 35.78,253.89 87.9,312.9 26.35,29.82 73.05,64.62 106.35,90.4l142.48 108.85c8.84,7.76 14.41,15.32 23.08,23.96 92.52,92.23 67.46,72.53 133.74,171.24l-20.79 3.9c-0.54,0.14 -2.45,0.47 -3.5,1.09 32.97,38.8 108.14,191.79 113.1,255.04 1.32,16.84 146.76,330.26 120.11,432.95 -29.76,114.63 -9.31,204.45 -40.16,340.48 -10.28,45.33 -18.9,117.87 -30.49,157.83 -17.44,-12.08 -10.87,-10.25 -24.79,-29.14 -17.1,20.06 -21.27,30.31 -39.7,47.71 -19.76,18.66 -26.38,25.97 -32.23,58.41l-30.21 -21.45 -11.59 53.2c-38.21,10.02 -75.52,34.48 -108.7,29.68l-7.86 -2.13c-3.26,-0.34 -4.25,-0.84 -11.56,0.49 -28.73,5.22 7.28,7.65 -51.82,-0.4 -9.25,22.54 -18.98,24.79 -32.67,42.82 -16.73,-10.08 -20.7,-22.68 -42.75,-16.02 -7.84,2.37 -36.83,16.93 -43.57,21.64 32.63,48.46 115.43,118.03 164.79,157.34l151.18 133.27c4.97,4.78 6.28,5.48 11.01,10.85 9.47,10.76 1.78,-0.45 10.59,13.99l-60.18 -9.4c37.34,66.78 115.42,132.38 186.23,164.72 -23.94,4.64 20.43,-4.14 -11.31,0.74 -0.76,0.12 -3.05,0.41 -3.86,0.56l-11.46 3.07c31.83,70.45 106.25,95.63 168.8,139.58l-53.92 2.35c17.29,35.26 110.59,116.3 144.87,148.51l621.26 546.33c56.04,44.16 107.29,84.05 164.34,127.5 271.96,207.15 587.16,396.04 746.01,713.22 10.3,20.56 17.64,34.82 14.38,54.49 -7.43,44.94 240.25,360.17 151.54,882.37 -8.03,47.24 -56.73,216.26 -55.42,234.72 260.16,53.22 424.75,-138.45 446.58,-364.98 17.82,-184.89 -48.82,-342.53 -195.51,-428.08 -64.23,-37.45 -94.58,-27.61 -163.4,-46.85 -3.5,-73.39 58.4,-127.62 106.53,-151.84l-34.31 -12.73c83.5,-44.49 73.33,-59.19 183.51,-68.01l-51.39 -30.57c68.27,0.32 190.18,70.74 263.92,91.95l-22.88 -51.43c52.82,16.12 126.01,67.93 165.88,106.51 11.92,11.53 30.93,37.52 43.2,47.47 25.67,20.78 -7.63,-14.43 17.95,13.25 8.83,9.56 12.05,17.07 19.28,28.7 39.1,62.93 73.79,126.3 84.27,204.03 1.43,-0.57 3.15,-4.11 3.57,-2.93 6.56,18.79 2.55,-15.04 14.54,-11.49 23.63,139.12 18.06,230.21 0.88,365.43 25.86,-14.56 35.04,-33.56 73.6,-46.65z"/>
  <path class="fil0" d="M18711.78 11374.33c-156.63,-478.75 246.93,-568.28 779.1,-589.61l63.92 -329.48c96.47,118.07 89.42,208.02 103.67,386.03 157.14,-66.1 97.98,-115.04 302.03,-139.67 199.72,1177.4 -643.04,1570.69 -117.24,1980.2 281.43,219.13 440.14,368.92 661.72,619.98 351.08,397.72 463.72,1022.71 760.33,1181.05 134.14,71.64 291.07,182.19 344.45,320.4 155.01,401.48 -93.71,733.25 -419.69,814.33 -205.82,51.23 -1656.72,153.91 -1893.06,84.93l-141.13 -36c-152.35,-29.53 -128.45,20.25 -252.73,-91.3 24.94,-308.03 365.74,-178.43 697.35,-213.02 -124.85,-410.66 -268.17,-863.32 -529.56,-1154.08 -91.25,92.76 -177.76,401.58 -220.54,528.25 -237.23,702.16 -72,1030.17 -487.35,1012.38 -126.37,-5.43 -222.42,-17.69 -191.69,-143.84 44.61,-183.24 69.76,-66.78 179.37,-206.4l173.32 -1543.87c25,-359.32 -255.59,-697.4 -232.59,-1189.71 39.66,-848.87 -521.47,-826.8 -619.24,-2128.9 -70.86,-943.82 -339.39,-448.74 -334.7,-1100.96 49.52,-37.67 -4.38,-3.5 82.33,-63.45 89.17,-61.67 38.09,-28.22 123.13,-77.58 209.27,197.37 240.47,162.47 316.17,471.13 54.84,223.77 145.67,399.28 212.82,622.12 169.56,563.21 127.15,806.44 639.81,987.07z"/>
  <path class="fil0" d="M11339.56 9310.48c-86.01,-194.83 12.82,-258.57 -236.87,-335.86 60.16,-108.29 94.37,-117.38 120.96,-188 95.37,-253.32 4.99,-62.64 -7.57,-162.89 -25.74,-205.71 254.74,-426.61 -205.24,-402.6 -571,29.85 -370.7,-168.24 -781.33,-123.79 -885.95,95.95 -281.38,1498.3 -252.16,1787.14 49.34,488.03 171.14,603.84 93.05,1136.64 -63.05,429.76 -90.74,638.46 -202.92,1046.52 -239.18,870.24 -643.51,940.02 -786.96,1081.1 -141.76,139.51 -121.43,179.44 -359.67,262.88 -279.22,97.84 -204.76,114.92 -401.7,223.06 -205.6,112.81 -242.49,76.82 -254.1,380.42 571.79,71.09 1171.32,-316.74 1305.57,-531.28 98.1,-156.74 -13.19,-59.32 149.59,-161.1 97.1,-60.74 162.99,-96.58 225,-150.59 26.32,461.13 163.67,534.01 196.99,784.27 45.24,340.39 -241.18,409.43 -92.17,761.79 64.48,152.49 81.81,171.93 132.94,357.88 83.07,302.29 71.83,151.38 196.31,294.36 256.89,295.03 -46.61,397.97 607.46,376.16 7.2,-211.7 20.97,-184.38 -134.09,-270.92 -257.15,-143.55 -124.85,15.71 -202.98,-226.46 -325.57,-1009.01 588.92,-832.94 369.91,-2170.3 -134.51,-821.48 244.6,-586.39 487.19,-1263.9 254.53,-710.61 382.95,-636.47 389.36,-1521.42 63.16,-47.92 135.67,-91.69 223,-160.37 35.25,-329.82 -129.79,-820.48 -59.85,-1013.79 97.99,-270.76 473.74,-152.01 489.97,-631.9 -398.76,-26.01 -432.23,162.94 -680.03,277.33 -84.64,-509.94 341.91,-604.63 102.73,-1041.9 -200.2,126.95 -276.59,376.48 -391.93,650.87 -149.54,355.93 45.03,616.03 -40.46,936.65z"/>
  <path class="fil0" d="M5803.96 18121.33c-305.55,138.09 -391.49,51.94 -414.41,364.23 373.14,312.14 138.37,-68.13 308.61,397.74 158.35,24.21 333.23,14.01 445.48,40.25 578.73,135.37 498.37,325.4 944.25,-260.13 238.92,0.34 357.16,122.72 631.7,109.12 282.44,-13.93 129.25,-40.18 311.54,-81.38 115.1,-25.97 266.32,-14.96 401.01,-28.56 187.51,-278.49 119.59,-226.75 572,-281.21 1466.49,-176.7 487.97,-1684.33 53.03,-1219.82 -137.47,313.37 245.79,292.7 154.07,741.31 -137.54,55 -275.23,76.62 -467.78,54.59 -8.36,-1022.51 -31.34,-666.1 -335.26,-1484.57 -183.16,-493.21 -200.98,-949.36 -545.01,-1297.47 -233.75,-236.54 -234.57,-164.33 -378.1,-542.63 -157.87,-416.31 -108.31,-271.62 42.57,-660.05 168.54,-433.85 35.08,-425.63 -55.62,-710.98 -57.45,-180.59 129.52,-442.62 165.35,-718.87 -205.87,66.7 -360.55,211.52 -507.62,236.13 -180.44,30.26 -331.38,-71.39 -564.66,-78.53 -359.74,-10.94 -305.28,112.05 -519.04,-76.55 -168.34,-148.63 -152.36,-245.11 -456.42,-238.72 -144.48,570.17 124.63,830.37 -125.71,1483.9 -552.56,1442.56 -36.31,1870.15 193.77,2767.22 99.06,386.25 2.99,423.78 -17.13,757.55 -21.42,353.69 121.56,467.84 163.38,727.43z"/>
  <path class="fil0" d="M14195.3 6820.21l-22.21 266.13c-69.18,61.13 -115.95,88.39 -228.59,118.17 -90.75,24 -221.95,39.95 -312.7,4 -328.47,-130.11 -318.23,247.7 -124.82,260.11 155.66,9.99 110.82,-171.38 510.15,-204.38 52.48,-4.34 114.65,-4.84 165.62,9.48 115.43,32.43 23.95,83.09 147.78,214.81 35.96,38.24 69.75,48.22 54.1,110.54 -36.9,146.95 -329.5,478.87 -534.41,544.31 -59.23,18.91 -83.9,30.31 -106.4,71.86 -87.7,161.94 138.67,309.17 244.94,170.84 35.31,-45.96 45.41,-370.62 448,-646.22 126.49,-86.6 103.93,-36.55 224.29,16.52 129.33,57.04 178.65,-6.33 227.6,136.95 96.2,281.61 -227.98,378.17 -50.27,532.44 80.56,69.93 200.66,29.83 234.66,-51.64 48.67,-116.64 -52.79,-167.9 -85.82,-256.72 -33.9,-91.18 -23.36,-224.86 32.43,-291.61 47.8,-57.19 187.36,-68.08 274.15,-91.37 151.09,-40.55 312.42,167.91 391.46,282.03 69.58,100.45 82,129.84 98.73,266.14 12.97,105.77 108.91,175.37 220.01,119.67 75.6,-37.92 108.63,-166.89 28.92,-236.55 -59.98,-52.4 -158.65,-57.71 -235.55,-129.73 -87.05,-81.54 -278.94,-287.35 -277.69,-456.27 119.22,-94.97 58.58,-268.35 370.17,-175.81 79.47,23.61 143.81,62.9 181.82,109.54 47.98,58.88 80.85,135.18 203.75,96.96 171.63,-53.36 103.4,-344.87 -110.79,-276.06 -207.24,66.57 -337.29,26.35 -453.83,-87.2 5.79,-131.06 37.5,-123.54 5.94,-277.33 102.36,-123.86 480.12,-216.55 694.4,-222.63 134.96,-3.84 276.89,89.43 346.69,-45.36 66.66,-128.73 -73.06,-268.3 -201.07,-199.99 -47.66,25.44 -55.87,68.91 -113.05,106.24 -160.79,104.96 -637.43,216.21 -743.58,168.19 -62.26,-28.16 4.79,-38.51 -92.53,-141.43 -130.29,-137.8 88.3,-344.22 222.73,-378.65 80.4,-20.59 123.41,-6.96 170.29,-62.38 91.61,-108.32 -6.25,-275.04 -152.61,-241.4 -133.49,30.69 -96.28,193.62 -162.12,292.64 -35.81,53.86 -179.37,212.51 -285.72,161.64 -49.38,-23.62 -49.51,-62.41 -139.12,-82.19 -64.38,-14.22 -134.17,-8.79 -185.21,-48.1 -101.56,-78.19 -102.06,-413.84 -17.04,-542.77 30.97,-46.96 75.97,-82.36 48.46,-173.34 -55.56,-183.74 -413.86,-94.39 -239.3,164.61 106.67,158.26 83.78,485.01 -19.31,544.28 -27.78,15.97 -132.66,33.84 -174.12,43.5 -72.6,16.91 -113.15,58.31 -178.89,33.62 -232.56,-87.34 -187.93,-382.92 -243.03,-443.86 -37.96,-41.99 -118.7,-55.52 -179.43,-30.27 -107.95,44.89 -114.95,228.36 23.16,274.78 73.4,24.66 99.52,22.95 154.22,64.84 266.38,204 85.23,430.25 38.78,447.46 -105.09,38.94 -847.55,-261.78 -945.76,-415.94 -36.13,-56.72 -47.74,-100.53 -119.64,-115.19 -74.54,-15.21 -135.45,16.42 -161.9,61.84 -74.38,127.68 28.38,251.38 177.58,224.13 186.13,-33.99 512.12,136 673.77,222.67 198.35,106.35 146,94.16 281.91,183.45z"/>
  <path class="fil1" d="M12030.74 6962.46c0,-1587.62 1287.78,-2875.4 2875.4,-2875.4 1587.62,0 2875.4,1287.78 2875.4,2875.4 0,1587.62 -1287.78,2875.4 -2875.4,2875.4 -1587.62,0 -2875.4,-1287.78 -2875.4,-2875.4zm4430.08 -1868.91c-424.22,-352.89 -961.76,-562.11 -1554.68,-562.11 -1342.27,0 -2431.02,1088.75 -2431.02,2431.02 0,551.82 182.93,1098.85 562.11,1554.68 1141.2,-1141.19 2282.4,-2282.39 3423.59,-3423.59zm-3109.36 3737.82c424.22,352.89 961.76,562.11 1554.68,562.11 1342.27,0 2431.02,-1088.75 2431.02,-2431.02 0,-551.82 -182.93,-1098.85 -562.11,-1554.68 -1141.2,1141.19 -2282.4,2282.39 -3423.59,3423.59z"/>
 </g>
</svg>
